<svg width="16" height="16" viewBox="0 0 16 16" fill="none" xmlns="http://www.w3.org/2000/svg">
<path d="M6.93344 1.5999C6.86279 1.59894 6.79266 1.61203 6.72711 1.6384C6.66157 1.66477 6.60191 1.70391 6.55161 1.75353C6.50131 1.80315 6.46137 1.86226 6.43412 1.92745C6.40686 1.99263 6.39282 2.06258 6.39282 2.13324H3.20011C3.12944 2.13224 3.05927 2.14529 2.99369 2.17165C2.9281 2.198 2.86841 2.23713 2.81808 2.28675C2.76775 2.33637 2.72778 2.39551 2.70051 2.46071C2.67323 2.52591 2.65918 2.59589 2.65918 2.66657C2.65918 2.73725 2.67323 2.80722 2.70051 2.87243C2.72778 2.93763 2.76775 2.99676 2.81808 3.04639C2.86841 3.09601 2.9281 3.13514 2.99369 3.16149C3.05927 3.18785 3.12944 3.2009 3.20011 3.1999H12.8001C12.8708 3.2009 12.9409 3.18785 13.0065 3.16149C13.0721 3.13514 13.1318 3.09601 13.1821 3.04639C13.2325 2.99676 13.2724 2.93763 13.2997 2.87243C13.327 2.80722 13.341 2.73725 13.341 2.66657C13.341 2.59589 13.327 2.52591 13.2997 2.46071C13.2724 2.39551 13.2325 2.33637 13.1821 2.28675C13.1318 2.23713 13.0721 2.198 13.0065 2.17165C12.9409 2.14529 12.8708 2.13224 12.8001 2.13324H9.6074C9.6074 2.06258 9.59336 1.99263 9.5661 1.92745C9.53884 1.86226 9.4989 1.80315 9.44861 1.75353C9.39831 1.70391 9.33865 1.66477 9.2731 1.6384C9.20756 1.61203 9.13742 1.59894 9.06678 1.5999H6.93344ZM3.20011 4.26657V12.7999C3.20011 13.3892 3.67744 13.8666 4.26678 13.8666H11.7334C12.3228 13.8666 12.8001 13.3892 12.8001 12.7999V4.26657H3.20011ZM6.40011 6.93324C6.53651 6.93324 6.67293 6.98522 6.77719 7.08949L8.00011 8.3124L9.22303 7.08949C9.43156 6.88095 9.76866 6.88095 9.97719 7.08949C10.1857 7.29802 10.1857 7.63512 9.97719 7.84365L8.75428 9.06657L9.97719 10.2895C10.1857 10.498 10.1857 10.8351 9.97719 11.0437C9.87319 11.1477 9.73664 11.1999 9.60011 11.1999C9.46357 11.1999 9.32702 11.1477 9.22303 11.0437L8.00011 9.82074L6.77719 11.0437C6.67319 11.1477 6.53664 11.1999 6.40011 11.1999C6.26358 11.1999 6.12703 11.1477 6.02303 11.0437C5.81449 10.8351 5.81449 10.498 6.02303 10.2895L7.24594 9.06657L6.02303 7.84365C5.81449 7.63512 5.81449 7.29802 6.02303 7.08949C6.12729 6.98522 6.26371 6.93324 6.40011 6.93324Z" fill="#FF5E54"/>
</svg>
