<svg width="16" height="16" viewBox="0 0 16 16" fill="none" xmlns="http://www.w3.org/2000/svg">
<path d="M7.46712 1.06665C7.17272 1.06665 6.93379 1.30558 6.93379 1.59998V2.2354C4.20795 2.7394 2.13379 5.13096 2.13379 7.99998C2.13379 11.2337 4.7667 13.8667 8.00046 13.8667C11.2342 13.8667 13.8671 11.2337 13.8671 7.99998C13.8671 5.13096 11.793 2.7394 9.06712 2.2354V1.59998C9.06712 1.30558 8.82819 1.06665 8.53379 1.06665H7.46712ZM12.2619 2.12811C12.1558 2.12814 12.0521 2.15981 11.9641 2.21907C11.8761 2.27833 11.8078 2.36249 11.7679 2.46079C11.7279 2.55909 11.7182 2.66706 11.74 2.7709C11.7618 2.87474 11.814 2.96974 11.89 3.04373L12.4234 3.57707C12.4725 3.62825 12.5314 3.66912 12.5965 3.69727C12.6617 3.72542 12.7317 3.74029 12.8027 3.74102C12.8737 3.74174 12.944 3.7283 13.0097 3.70147C13.0754 3.67465 13.1351 3.63499 13.1853 3.58482C13.2355 3.53464 13.2751 3.47496 13.3019 3.40927C13.3288 3.34357 13.3422 3.27319 13.3415 3.20223C13.3408 3.13128 13.3259 3.06118 13.2977 2.99604C13.2696 2.93091 13.2287 2.87204 13.1775 2.8229L12.6442 2.28957C12.5945 2.23848 12.5351 2.19787 12.4694 2.17013C12.4037 2.1424 12.3332 2.12811 12.2619 2.12811ZM8.00046 3.19998C10.6577 3.19998 12.8005 5.3427 12.8005 7.99998C12.8005 10.6573 10.6577 12.8 8.00046 12.8C5.34317 12.8 3.20046 10.6573 3.20046 7.99998C3.20046 5.3427 5.34317 3.19998 8.00046 3.19998ZM7.99212 4.25936C7.85086 4.26157 7.71624 4.31973 7.61781 4.42109C7.51938 4.52245 7.46519 4.65871 7.46712 4.79998V7.07811C7.30525 7.17157 7.17077 7.30592 7.07717 7.46772C6.98356 7.62951 6.93412 7.81306 6.93379 7.99998C6.93394 8.18708 6.98329 8.37085 7.07691 8.53284C7.17052 8.69483 7.30509 8.82935 7.46712 8.9229V9.59998C7.46612 9.67066 7.47918 9.74082 7.50553 9.80641C7.53189 9.87199 7.57101 9.93168 7.62064 9.98201C7.67026 10.0323 7.72939 10.0723 7.7946 10.0996C7.8598 10.1269 7.92978 10.1409 8.00046 10.1409C8.07114 10.1409 8.14111 10.1269 8.20632 10.0996C8.27152 10.0723 8.33065 10.0323 8.38027 9.98201C8.4299 9.93168 8.46902 9.87199 8.49538 9.80641C8.52173 9.74082 8.53479 9.67066 8.53379 9.59998V8.92186C8.69567 8.8284 8.83014 8.69404 8.92375 8.53225C9.01735 8.37045 9.06679 8.1869 9.06712 7.99998C9.06697 7.81289 9.01762 7.62912 8.92401 7.46713C8.83039 7.30514 8.69582 7.17062 8.53379 7.07707V4.79998C8.53477 4.72863 8.52142 4.6578 8.49453 4.5917C8.46764 4.5256 8.42776 4.46557 8.37725 4.41516C8.32674 4.36474 8.26663 4.32498 8.20048 4.29822C8.13433 4.27146 8.06348 4.25824 7.99212 4.25936Z" fill="#1F2B38"/>
</svg>
