<svg width="19" height="19" viewBox="0 0 19 19" fill="none" xmlns="http://www.w3.org/2000/svg">
<path d="M17.7843 0.392179C17.7545 0.393121 17.7248 0.395729 17.6953 0.399992H13C12.8939 0.398492 12.7887 0.418077 12.6903 0.457608C12.5919 0.497139 12.5024 0.555828 12.4269 0.630263C12.3514 0.704699 12.2915 0.793397 12.2505 0.891203C12.2096 0.989008 12.1886 1.09397 12.1886 1.19999C12.1886 1.30601 12.2096 1.41097 12.2505 1.50878C12.2915 1.60659 12.3514 1.69528 12.4269 1.76972C12.5024 1.84415 12.5919 1.90284 12.6903 1.94237C12.7887 1.98191 12.8939 2.00149 13 1.99999H15.8687L7.63433 10.2344C7.55755 10.3081 7.49625 10.3964 7.45402 10.4941C7.41179 10.5918 7.38948 10.6969 7.3884 10.8034C7.38731 10.9098 7.40748 11.0154 7.44771 11.1139C7.48794 11.2125 7.54743 11.302 7.62269 11.3772C7.69796 11.4525 7.78748 11.512 7.88602 11.5522C7.98457 11.5925 8.09015 11.6126 8.19658 11.6115C8.30301 11.6105 8.40816 11.5882 8.50586 11.5459C8.60357 11.5037 8.69186 11.4424 8.76558 11.3656L17 3.13124V5.99999C16.9985 6.106 17.018 6.21125 17.0576 6.30963C17.0971 6.408 17.1558 6.49754 17.2302 6.57303C17.3047 6.64853 17.3934 6.70848 17.4912 6.74939C17.589 6.79031 17.6939 6.81138 17.8 6.81138C17.906 6.81138 18.0109 6.79031 18.1087 6.74939C18.2065 6.70848 18.2952 6.64853 18.3697 6.57303C18.4441 6.49754 18.5028 6.408 18.5423 6.30963C18.5819 6.21125 18.6014 6.106 18.6 5.99999V1.30155C18.6159 1.18637 18.6065 1.06911 18.5725 0.957914C18.5385 0.846722 18.4807 0.74428 18.403 0.657719C18.3254 0.571158 18.2298 0.50256 18.123 0.456701C18.0161 0.410841 17.9006 0.388823 17.7843 0.392179ZM1.79995 3.59999C0.925501 3.59999 0.199951 4.32554 0.199951 5.19999V17.2C0.199951 18.0744 0.925501 18.8 1.79995 18.8H13.8C14.6744 18.8 15.4 18.0744 15.4 17.2V9.19999V7.13749L13.8 8.73749V10.8V17.2H1.79995V5.19999H8.19995H9.79995H10.2625L11.8625 3.59999H9.79995H8.19995H1.79995Z" fill="#1F2B38"/>
</svg>
