<svg width="24" height="24" viewBox="0 0 24 24" fill="none" xmlns="http://www.w3.org/2000/svg">
<path d="M11.9999 2.40002C6.70753 2.40002 2.3999 6.70765 2.3999 12C2.3999 17.2924 6.70753 21.6 11.9999 21.6C17.2923 21.6 21.5999 17.2924 21.5999 12C21.5999 11.7879 21.5156 11.5844 21.3655 11.4344L21.2468 11.3172C21.229 11.2975 21.2102 11.2788 21.1905 11.261L12.7952 2.86409C12.7463 2.79703 12.6873 2.73799 12.6202 2.68909L12.5655 2.6344C12.4155 2.48437 12.2121 2.40007 11.9999 2.40002ZM11.2358 4.0969C11.2155 4.32902 11.1999 4.56317 11.1999 4.80002C11.1999 5.08646 11.2157 5.3697 11.2452 5.64846C8.06701 6.02248 5.5999 8.72136 5.5999 12C5.5999 15.5344 8.4655 18.4 11.9999 18.4C15.2786 18.4 17.9774 15.9329 18.3515 12.7547C18.6302 12.7843 18.9135 12.8 19.1999 12.8C19.4368 12.8 19.6709 12.7845 19.903 12.7641C19.5146 16.8233 16.1631 20 11.9999 20C7.57228 20 3.9999 16.4277 3.9999 12C3.9999 7.83682 7.17661 4.48537 11.2358 4.0969ZM12.8171 5.14846L18.8515 11.1828C15.5871 11.0081 12.9918 8.41283 12.8171 5.14846Z" fill="#1F2B38"/>
</svg>
