<svg width="24" height="24" viewBox="0 0 24 24" fill="none" xmlns="http://www.w3.org/2000/svg">
<path d="M11.9998 0.800049C11.8744 0.800224 11.7508 0.829871 11.639 0.886596C11.5272 0.943322 11.4303 1.02554 11.3561 1.12661C11.348 1.13684 11.3402 1.14726 11.3326 1.15786C9.44372 3.58851 4.7998 11.2188 4.7998 15.2C4.7998 19.1768 8.023 22.4 11.9998 22.4C15.9766 22.4 19.1998 19.1768 19.1998 15.2C19.1998 11.2233 14.5662 3.6084 12.6732 1.1688C12.673 1.16852 12.6735 1.16751 12.6732 1.16724C12.6638 1.15339 12.6539 1.13984 12.6436 1.12661C12.5694 1.02554 12.4724 0.943322 12.3606 0.886596C12.2488 0.829871 12.1252 0.800224 11.9998 0.800049ZM7.1998 14.4C7.6422 14.4 7.9998 14.7576 7.9998 15.2C7.9998 16.888 9.07179 18.4024 10.667 18.9672C11.083 19.1144 11.3009 19.5707 11.1529 19.9875C11.0369 20.3155 10.7294 20.5204 10.3998 20.5204C10.3118 20.5204 10.2206 20.5062 10.1326 20.475C7.89982 19.6854 6.3998 17.5648 6.3998 15.2C6.3998 14.7576 6.7574 14.4 7.1998 14.4Z" fill="#1F2B38"/>
</svg>
