<svg width="24" height="24" viewBox="0 0 24 24" fill="none" xmlns="http://www.w3.org/2000/svg">
<path d="M3.2001 4C2.3161 4 1.6001 4.716 1.6001 5.6V18.4C1.6001 19.284 2.3161 20 3.2001 20H20.8001C21.6841 20 22.4001 19.284 22.4001 18.4V5.6C22.4001 4.716 21.6841 4 20.8001 4H3.2001ZM18.4001 6.4C19.2841 6.4 20.0001 7.116 20.0001 8C20.0001 8.884 19.2841 9.6 18.4001 9.6C17.5161 9.6 16.8001 8.884 16.8001 8C16.8001 7.116 17.5161 6.4 18.4001 6.4ZM4.0001 8L7.97822 11.9781L8.8001 12.8L9.7251 13.725C10.0627 14.0626 10.6078 14.0595 10.9454 13.7219C11.2838 13.3843 11.2838 12.8353 10.9454 12.4969L10.0235 11.5766L11.2001 10.4L13.5782 12.7781L15.3251 14.525C15.6627 14.8626 16.2078 14.8595 16.5454 14.5219C16.8838 14.1843 16.8838 13.6353 16.5454 13.2969L16.4235 13.1766L17.6001 12L20.0001 14.4V17.6H4.0001V8Z" fill="#1F2B38"/>
</svg>
