<svg width="24" height="24" viewBox="0 0 24 24" fill="none" xmlns="http://www.w3.org/2000/svg">
<path d="M18.2629 2.3999C17.8535 2.3999 17.444 2.55625 17.1316 2.86865L15.2004 4.7999L19.2004 8.7999L21.1316 6.86865C21.7564 6.24385 21.7564 5.23095 21.1316 4.60615L19.3941 2.86865C19.0817 2.55625 18.6723 2.3999 18.2629 2.3999ZM13.6004 6.3999L4.2082 15.7921C4.2082 15.7921 4.94242 15.7263 5.21602 15.9999C5.48962 16.2735 5.26439 18.0639 5.60039 18.3999C5.93639 18.7359 7.7155 18.4994 7.9707 18.7546C8.2259 19.0098 8.2082 19.7921 8.2082 19.7921L17.6004 10.3999L13.6004 6.3999ZM3.20039 18.3999L2.4457 20.5374C2.41603 20.6218 2.40072 20.7105 2.40039 20.7999C2.40039 21.0121 2.48468 21.2156 2.63471 21.3656C2.78473 21.5156 2.98822 21.5999 3.20039 21.5999C3.28981 21.5996 3.37854 21.5843 3.46289 21.5546C3.4655 21.5536 3.4681 21.5525 3.4707 21.5515L3.49102 21.5452C3.49258 21.5442 3.49414 21.5431 3.4957 21.5421L5.60039 20.7999L4.40039 19.5999L3.20039 18.3999Z" fill="black"/>
</svg>
