<svg width="24" height="24" viewBox="0 0 24 24" fill="none" xmlns="http://www.w3.org/2000/svg">
<path d="M7.99834 2.40015C4.91114 2.40015 2.3999 4.91371 2.3999 8.00171V16.0017C2.3999 19.0889 4.91346 21.6001 8.00146 21.6001H16.0015C19.0887 21.6001 21.5999 19.0866 21.5999 15.9986V7.99858C21.5999 4.91138 19.0863 2.40015 15.9983 2.40015H7.99834ZM17.5999 5.60015C18.0415 5.60015 18.3999 5.95855 18.3999 6.40015C18.3999 6.84175 18.0415 7.20015 17.5999 7.20015C17.1583 7.20015 16.7999 6.84175 16.7999 6.40015C16.7999 5.95855 17.1583 5.60015 17.5999 5.60015ZM11.9999 7.20015C14.6471 7.20015 16.7999 9.35295 16.7999 12.0001C16.7999 14.6473 14.6471 16.8001 11.9999 16.8001C9.3527 16.8001 7.1999 14.6473 7.1999 12.0001C7.1999 9.35295 9.3527 7.20015 11.9999 7.20015ZM11.9999 8.80015C11.1512 8.80015 10.3373 9.13729 9.73716 9.7374C9.13704 10.3375 8.7999 11.1515 8.7999 12.0001C8.7999 12.8488 9.13704 13.6628 9.73716 14.2629C10.3373 14.863 11.1512 15.2001 11.9999 15.2001C12.8486 15.2001 13.6625 14.863 14.2626 14.2629C14.8628 13.6628 15.1999 12.8488 15.1999 12.0001C15.1999 11.1515 14.8628 10.3375 14.2626 9.7374C13.6625 9.13729 12.8486 8.80015 11.9999 8.80015Z" fill="#1F2B38"/>
</svg>
