<svg width="27" height="33" viewBox="0 0 27 33" fill="none" xmlns="http://www.w3.org/2000/svg">
<path d="M14.0667 32.3234L13.7099 32.5772H13.2728C12.8718 32.346 12.5186 32.0384 12.2324 31.6714C12.9149 31.6815 13.4798 32.0345 14.0667 32.3234Z" fill="#2FCDEB"/>
<path d="M13.1846 0H13.7966C13.7966 0.0294223 13.7967 0.0588323 13.797 0.0882299L13.1848 0.0897505L13.1846 0.088267V0Z" fill="#EABEE6"/>
<path d="M26.9994 15.6653V16.2884C26.9708 16.2882 26.9422 16.2884 26.9136 16.2889L26.9109 16.1104L26.9102 15.6648L26.9133 15.6655C26.942 15.6654 26.9707 15.6653 26.9994 15.6653Z" fill="#D0C1FE"/>
<path d="M26.9996 16.9116C26.9728 16.9127 26.946 16.9143 26.9192 16.9163C26.9161 16.7957 26.9131 16.6752 26.9102 16.5547L26.9157 16.5581C26.9436 16.5556 26.9717 16.5548 26.9997 16.5555L26.9996 16.9116Z" fill="#E3DCFE"/>
<path d="M26.9217 14.8606C26.9476 14.8642 26.9738 14.8654 27 14.8643V15.1313C26.973 15.1313 26.946 15.1305 26.9189 15.1288C26.9198 15.0394 26.9207 14.95 26.9217 14.8606Z" fill="#EEE7FD"/>
<path d="M27 16.5554C26.9719 16.5547 26.9439 16.5555 26.9159 16.5579C26.9153 16.4682 26.9146 16.3785 26.9141 16.2889C26.9426 16.2884 26.9712 16.2882 26.9998 16.2884L27 16.5554Z" fill="#D4C7FE"/>
<path d="M14.4982 0C14.498 0.0276669 14.4985 0.0553461 14.4996 0.0830377H14.3257C14.3238 0.0553708 14.323 0.0276916 14.3233 0H14.4982Z" fill="#FAF1F9"/>
<path d="M26.9982 15.665C26.9695 15.665 26.9408 15.665 26.9121 15.6651L26.9131 15.4861C26.9415 15.4867 26.9698 15.487 26.9982 15.4869V15.665Z" fill="#D6C6FD"/>
<path d="M12.4854 0.0830006C12.4867 0.0553338 12.4872 0.0276669 12.4869 0H12.6618C12.6621 0.027741 12.6614 0.0554821 12.6595 0.0832231L12.4854 0.0830006Z" fill="#F9EFF9"/>
<path d="M12.6572 0.083149C12.6591 0.0554821 12.6599 0.0277658 12.6596 0H12.8344C12.8346 0.0286806 12.8341 0.0573364 12.833 0.0859676L12.6572 0.083149Z" fill="#F4DDF3"/>
<path d="M26.9991 15.4873C26.9707 15.4873 26.9424 15.487 26.9141 15.4865L26.9155 15.3081C26.9434 15.309 26.9712 15.3094 26.9991 15.3093V15.4873Z" fill="#DCCEFD"/>
<path d="M12.835 0.0859305C12.8361 0.0572994 12.8366 0.0286559 12.8364 0H13.0113C13.0113 0.0290762 13.011 0.0581647 13.0104 0.0872656L12.835 0.0859305Z" fill="#EFCFEF"/>
<path d="M26.9998 15.3097C26.9719 15.3097 26.944 15.3093 26.9161 15.3085L26.9082 15.2195L26.9188 15.1292C26.9458 15.131 26.9728 15.1318 26.9998 15.1317V15.3097Z" fill="#E3D7FD"/>
<path d="M13.0107 0.0872656C13.0114 0.05814 13.0117 0.0290515 13.0116 0H13.1865V0.088267L13.0107 0.0872656Z" fill="#EDC5E9"/>
<path d="M13.7983 0.0882299C13.798 0.0588323 13.7978 0.0294223 13.7979 0H13.9727C13.9727 0.0290515 13.973 0.0581029 13.9736 0.0871544L13.7983 0.0882299Z" fill="#EDC5EA"/>
<path d="M13.9736 0.0871173C13.9729 0.0580905 13.9726 0.0290515 13.9727 0H14.1475C14.1473 0.0285322 14.1478 0.0570521 14.1492 0.0855596L13.9736 0.0871173Z" fill="#F0D0ED"/>
<path d="M14.1482 0.0855225C14.1469 0.0570398 14.1463 0.0285322 14.1465 0H14.3214C14.321 0.0276916 14.3218 0.0553832 14.3237 0.0830748L14.1482 0.0855225Z" fill="#F5DFF3"/>
<path d="M26.6385 18.1542L26.4737 18.6021C25.2029 18.0969 23.9347 17.5848 22.6609 17.0876C16.2636 14.5907 9.86561 12.0958 3.4668 9.60312C3.70544 9.49218 3.94407 9.38123 4.18269 9.27026C4.22026 9.47513 4.39773 9.48359 4.54369 9.54044C11.9088 12.4112 19.2738 15.2824 26.6385 18.1542Z" fill="#B7AEFE"/>
<path d="M26.7393 17.718C26.7416 17.746 26.7389 17.7742 26.7314 17.8012C26.47 17.7118 26.2051 17.6318 25.9478 17.5316C20.3298 15.3441 14.7127 13.1544 9.09638 10.9626C7.59511 10.3756 6.10536 9.75805 4.61035 9.1545L5.31013 8.98486C6.47382 9.44337 7.63385 9.91159 8.80196 10.3579C10.3483 10.9487 11.901 11.5224 13.451 12.1033L13.4488 12.1018C13.6191 12.2356 13.802 12.3522 13.9948 12.4497C18.1471 14.0734 22.3021 15.6901 26.4597 17.2999C26.6733 17.3823 26.7696 17.4926 26.7393 17.718Z" fill="#BBACFE"/>
<path d="M26.3097 18.9751L26.2105 19.2258C26.0821 19.206 25.9553 19.1767 25.8311 19.1381C19.8091 16.7962 13.7876 14.4531 7.76651 12.1088C6.04557 11.4404 4.31564 10.7959 2.58984 10.1405L2.95625 9.88037C3.77392 10.1778 4.59715 10.4601 5.40847 10.7753C11.0329 12.9613 16.6555 15.152 22.2764 17.3471C23.6265 17.8748 24.9655 18.4317 26.3097 18.9751Z" fill="#B3AEFE"/>
<path d="M26.0378 19.5821C25.9524 19.7354 25.867 19.8886 25.7815 20.0416C25.4723 19.6128 24.9579 19.5897 24.5302 19.4218C18.6068 17.0971 12.6786 14.785 6.7457 12.4854C5.15962 11.8691 3.56458 11.2772 1.97363 10.6741C2.0648 10.5861 2.15601 10.4981 2.24725 10.4102C2.39002 10.4338 2.531 10.4675 2.66917 10.511C7.30975 12.3151 11.9497 14.121 16.589 15.9287C19.7367 17.1515 22.8863 18.3694 26.0378 19.5821Z" fill="#B0AEFE"/>
<path d="M26.3106 18.9751C24.9664 18.4317 23.6273 17.8748 22.2772 17.3472C16.6567 15.1509 11.034 12.9603 5.40925 10.7753C4.59823 10.46 3.77482 10.1778 2.95703 9.88033C3.1266 9.78806 3.29613 9.69579 3.4656 9.60352C9.86376 12.0979 16.2618 14.5927 22.6597 17.0879C23.9336 17.5851 25.2018 18.0972 26.4725 18.6024L26.3106 18.9751Z" fill="#B5AEFE"/>
<path d="M26.0378 19.5819C22.888 18.3645 19.7384 17.1467 16.589 15.9285C11.9479 14.1255 7.30791 12.3196 2.66899 10.5109C2.53082 10.4674 2.38984 10.4337 2.24707 10.41C2.36158 10.3201 2.4762 10.2302 2.59093 10.1404C4.31662 10.7958 6.04655 11.4402 7.76749 12.1087C13.7904 14.4481 19.8119 16.7912 25.832 19.138C25.9562 19.1765 26.083 19.2059 26.2115 19.2256L26.0378 19.5819Z" fill="#B1AEFE"/>
<path d="M25.6914 20.206C25.6019 20.3516 25.5124 20.4971 25.4229 20.6427C25.3893 20.4235 25.1896 20.4456 25.0529 20.392C21.6121 19.0462 18.1703 17.7034 14.7273 16.3637C10.3086 14.6453 5.88905 12.929 1.46875 11.2148C1.55025 11.1231 1.63178 11.0314 1.71335 10.9397C7.84541 13.3189 13.9777 15.6975 20.1102 18.0756C21.9672 18.7947 23.8308 19.4964 25.6914 20.206Z" fill="#ACAEFE"/>
<path d="M25.6919 20.2059C23.8313 19.4962 21.9679 18.7946 20.1107 18.0754C13.9772 15.7002 7.8449 13.3216 1.71387 10.9396C1.80046 10.8509 1.88707 10.7624 1.97371 10.6738C3.56451 11.2769 5.15965 11.8688 6.74574 12.4851C12.6768 14.7894 18.605 17.1016 24.5303 19.4217C24.9579 19.5895 25.4725 19.6126 25.7817 20.0414C25.7518 20.0963 25.7218 20.1511 25.6919 20.2059Z" fill="#AEAEFE"/>
<path d="M1.47023 11.2148C5.88982 12.931 10.3093 14.6472 14.7288 16.3637C18.172 17.7028 21.6138 19.0456 25.0543 20.3921C25.1911 20.4456 25.3908 20.4235 25.4243 20.6428C25.3652 20.7313 25.306 20.8199 25.2469 20.9086C25.1418 20.8314 25.0303 20.7637 24.9135 20.7063C22.7062 19.8433 20.5031 18.9693 18.2859 18.1334C17.3207 17.7695 16.4048 17.2587 15.3741 17.0819C15.0541 16.7975 14.6773 16.5866 14.2695 16.4636C13.8618 16.3406 13.4326 16.3085 13.0115 16.3694L13.4006 16.2182C12.0053 15.6767 10.6628 15.16 9.32365 14.6346C6.64412 13.5829 3.9656 12.5285 1.28809 11.4716L1.47023 11.2148Z" fill="#AAAFFE"/>
<path d="M4.61082 9.1543C6.10584 9.75785 7.59559 10.3754 9.09685 10.9624C14.7118 13.1579 20.3289 15.3477 25.9483 17.5315C26.2056 17.6317 26.4705 17.7118 26.7318 17.8012C26.7286 17.8326 26.7254 17.8641 26.7223 17.8955C26.7 17.9292 26.6776 17.963 26.6551 17.9968C26.6496 18.0492 26.6441 18.1016 26.6385 18.154C19.2736 15.2826 11.9086 12.4113 4.54361 9.54026C4.39765 9.48341 4.22019 9.47495 4.18262 9.27008C4.32536 9.23156 4.4681 9.19297 4.61082 9.1543Z" fill="#B9ACFE"/>
<path d="M0.155512 17.3576C0.123181 17.1515 0.0908758 16.9455 0.0585938 16.7394L0.078365 16.73C0.865268 17.0287 1.65385 17.323 2.43885 17.6269C5.64691 18.8688 8.85441 20.1123 12.0613 21.3574L12.5636 21.6101V24.0323L12.4859 23.9429C12.4848 23.8536 12.4838 23.7643 12.4828 23.675C12.4828 23.5863 12.4827 23.4976 12.4825 23.4088L12.4829 23.23V22.964V22.6974L12.4835 22.5182L12.4428 22.1206L0.155512 17.3576Z" fill="#83B7FE"/>
<path d="M26.9075 15.2187L26.9154 15.3077C26.915 15.3671 26.9145 15.4265 26.9141 15.4861L26.913 15.6652L26.9099 15.6645C25.2249 15.0172 23.5361 14.3799 21.8556 13.7203C19.5134 12.8009 17.1774 11.8647 14.8389 10.9357C14.9536 10.8487 15.0684 10.7618 15.1832 10.6748C15.9455 10.9586 16.7114 11.2325 17.4693 11.5278C20.6167 12.7546 23.7627 13.985 26.9075 15.2187Z" fill="#C4ADFD"/>
<path d="M26.7388 17.7185C26.769 17.4931 26.6728 17.383 26.4591 17.3002C22.3016 15.6905 18.1466 14.0738 13.9943 12.4501C13.8015 12.3525 13.6186 12.236 13.4482 12.1021L13.7086 11.9268C17.8479 13.5293 21.986 15.1348 26.123 16.7432C26.3897 16.8474 26.803 16.8174 26.828 17.278L26.7388 17.7185Z" fill="#BCADFE"/>
<path d="M26.9127 16.2895C26.9133 16.3792 26.9139 16.4689 26.9146 16.5586L26.9092 16.5553C26.8367 16.5541 26.7647 16.5444 26.6945 16.5262C23.6561 15.3411 20.6257 14.1341 17.5777 12.9753C16.3845 12.5217 15.2377 11.9299 13.9785 11.6621L14.3978 11.2996C15.1875 11.5975 15.9788 11.8905 16.7663 12.1941C20.1482 13.4981 23.5294 14.8037 26.91 16.111L26.9127 16.2895Z" fill="#C0ADFE"/>
<path d="M13.9793 11.6621C15.2385 11.9299 16.3853 12.5217 17.5786 12.9753C20.6265 14.1341 23.6569 15.3411 26.6953 16.5262C26.7655 16.5444 26.8376 16.5541 26.91 16.5553C26.913 16.6757 26.916 16.7963 26.919 16.9168C26.8888 17.0373 26.8586 17.1577 26.8284 17.2782C26.8034 16.8175 26.3898 16.8476 26.1233 16.7435C21.9888 15.1284 17.8507 13.5229 13.709 11.927L13.9793 11.6621Z" fill="#BEADFE"/>
<path d="M26.9097 16.11C23.5285 14.8041 20.1473 13.4985 16.7659 12.1931C15.9785 11.8895 15.1871 11.5965 14.3975 11.2985L14.8379 10.9358C17.1765 11.8647 19.5125 12.8009 21.8547 13.7203C23.535 14.3799 25.2238 15.0172 26.9089 15.6645C26.9092 15.813 26.9094 15.9615 26.9097 16.11Z" fill="#C2ADFE"/>
<path d="M26.9071 15.2196C23.7612 13.9888 20.6151 12.7585 17.4688 11.5288C16.7109 11.2334 15.9448 10.9595 15.1826 10.6758C15.3346 10.56 15.4865 10.4443 15.6385 10.3286C17.7921 11.162 19.9493 11.9861 22.0982 12.832C23.7045 13.4643 25.3001 14.1247 26.9003 14.7726C26.9069 14.8023 26.9135 14.8319 26.9202 14.8613C26.9193 14.9507 26.9184 15.0401 26.9175 15.1294C26.9141 15.1594 26.9106 15.1895 26.9071 15.2196Z" fill="#C6ADFC"/>
<path d="M26.6596 13.6144C26.712 13.8226 26.7644 14.0308 26.8168 14.239L16.0586 10.0526C16.2034 9.96321 16.3482 9.8738 16.493 9.78442C17.3917 9.93474 18.1948 10.3699 19.0361 10.6862C21.5838 11.6442 24.1195 12.6359 26.6596 13.6144Z" fill="#CAACFA"/>
<path d="M16.0594 10.0527L26.8177 14.2391C26.8457 14.4168 26.8737 14.5944 26.9017 14.7721C25.3013 14.1241 23.7057 13.4637 22.0994 12.8314C19.9505 11.9855 17.7933 11.1615 15.6396 10.328C15.7795 10.2363 15.9195 10.1445 16.0594 10.0527Z" fill="#C8ADFB"/>
<path d="M26.6597 13.6148C24.1194 12.6363 21.5839 11.6446 19.0363 10.6866C18.195 10.3703 17.3919 9.93515 16.4932 9.78484C16.6781 9.58621 16.9255 9.45916 17.1927 9.42554C18.75 10.0402 20.3094 10.649 21.8638 11.2709C23.4294 11.8974 24.99 12.5369 26.5529 13.1706L26.6597 13.6148Z" fill="#CCACF8"/>
<path d="M0.154297 17.3582L12.4416 22.121C12.4562 22.2644 12.4693 22.3915 12.4823 22.5186C8.55973 20.9832 4.63614 19.4507 0.711546 17.9211C0.612872 17.8828 0.415527 17.6676 0.338123 17.9779L0.317072 17.9927L0.154297 17.3582Z" fill="#7FB9FE"/>
<path d="M1.2874 11.4714C3.96582 12.5261 6.64434 13.5805 9.32297 14.6347C10.6621 15.1603 12.0046 15.6768 13.3999 16.2185L13.0108 16.3697L12.6611 16.4592C12.6696 16.1283 12.3646 16.1926 12.2066 16.1299C10.1964 15.3316 8.1809 14.5471 6.16019 13.7762C4.4546 13.1222 2.74306 12.4836 1.03418 11.8383L1.20657 11.5708L1.29259 11.4751L1.2874 11.4714Z" fill="#A7AEFE"/>
<path d="M25.7952 11.6519L26.2152 12.3716C26.0081 12.3114 25.7954 12.2664 25.5948 12.1887C23.0001 11.1835 20.4063 10.1757 17.8135 9.16518L18.06 9.00355L18.0819 8.72266C19.0942 9.11871 20.1033 9.52399 21.1199 9.90862C22.6755 10.4972 24.2365 11.0716 25.7952 11.6519Z" fill="#D0ADF6"/>
<path d="M19.2338 3.55461L19.5694 4.2728C19.2553 4.12349 18.933 3.99266 18.6041 3.88094C17.8971 3.68145 17.2734 3.21783 16.5107 3.20058C15.7382 2.55182 14.7938 2.14938 13.7965 2.04387C12.7162 1.55218 11.604 1.13599 10.4678 0.798235C10.7048 0.683117 10.9418 0.567999 11.1788 0.452881C12.3948 0.935753 13.6069 1.42957 14.828 1.89883C16.2925 2.4617 17.7649 3.00365 19.2338 3.55461Z" fill="#E3AEE7"/>
<path d="M25.7955 11.6523C24.2367 11.0719 22.6758 10.4976 21.12 9.90898C20.1034 9.52436 19.0944 9.11903 18.082 8.72302V8.18896C18.8704 8.48628 19.6587 8.78354 20.4471 9.08076C22.023 9.67264 23.599 10.2639 25.1753 10.8546C25.4484 11.0597 25.6625 11.3351 25.7955 11.6523Z" fill="#D2ADF4"/>
<path d="M19.304 27.1447L19.1285 27.3182C19.0949 27.0989 18.8953 27.121 18.7585 27.0675C13.5562 25.0332 8.35642 22.992 3.14248 20.9889C2.60347 20.7818 2.10868 20.3313 1.45689 20.493C1.36216 20.3407 1.26748 20.1884 1.17285 20.0361C1.44899 20.123 1.7305 20.195 2.00006 20.299C5.59399 21.6856 9.18692 23.0747 12.7788 24.4664C12.9433 24.5641 13.1077 24.6617 13.2722 24.7594C14.4518 25.1922 15.6461 25.5886 16.8062 26.07C17.6426 26.4169 18.5545 26.589 19.304 27.1447Z" fill="#6EBDFA"/>
<path d="M19.2327 3.55386C17.7638 3.0029 16.2915 2.46094 14.8269 1.89811C13.6058 1.42885 12.3938 0.935039 11.1777 0.452092L11.8633 0.262207C12.533 0.499193 13.2066 0.725646 13.8717 0.975018C15.5152 1.59155 17.1549 2.21858 18.7962 2.84135L19.2327 3.55386Z" fill="#E5AEE5"/>
<path d="M18.9524 27.4951L18.7775 27.6692C18.7433 27.4619 18.5644 27.4553 18.4194 27.3987C13.721 25.5663 9.02191 23.736 4.3221 21.9077C3.49529 21.5883 2.7036 21.1549 1.81189 21.0223C1.75217 20.9349 1.69248 20.8475 1.63281 20.76C1.78517 20.581 1.93589 20.7344 2.06438 20.7842C6.99561 22.6969 11.929 24.6042 16.8475 26.5502C17.5581 26.8315 18.3546 26.9437 18.9524 27.4951Z" fill="#6ABFFA"/>
<path d="M18.9514 27.4942C18.3536 26.9428 17.557 26.8305 16.8464 26.5493C11.9278 24.603 6.99441 22.696 2.06304 20.7833C1.93455 20.7335 1.78383 20.5801 1.63147 20.7591C1.573 20.6702 1.51453 20.5814 1.45605 20.4926C2.10781 20.3309 2.6026 20.7814 3.14162 20.9885C8.35545 22.9917 13.5552 25.0329 18.7576 27.0671C18.8944 27.1206 19.0941 27.0985 19.1277 27.3178L18.9514 27.4942Z" fill="#6CBFFA"/>
<path d="M1.03364 11.8381C2.74252 12.4834 4.45392 13.1219 6.15965 13.7757C8.1791 14.5497 10.1946 15.3343 12.2061 16.1294C12.3641 16.1921 12.6691 16.1279 12.6606 16.4588L12.224 16.6458C12.3144 16.406 12.1093 16.4212 11.9904 16.3748C10.2012 15.6763 8.41339 14.9743 6.62035 14.2864C4.70692 13.552 2.78838 12.8318 0.87207 12.1056L1.03364 11.8381Z" fill="#A5AEFE"/>
<path d="M1.81152 21.0222C2.70324 21.1546 3.49508 21.5882 4.32189 21.9076C9.02569 23.7253 13.7247 25.5556 18.4191 27.3986C18.5642 27.4552 18.7431 27.4617 18.7772 27.6691L18.6865 27.7578C18.6529 27.7305 18.6166 27.7068 18.5782 27.6871C14.0253 25.913 9.47651 24.1282 4.91513 22.3773C3.97905 22.018 3.08858 21.5089 2.07304 21.3797L1.81152 21.0222Z" fill="#68C0F9"/>
<path d="M0.872614 12.1052C2.78893 12.8316 4.70747 13.5519 6.62089 14.2859C8.41393 14.9739 10.2018 15.6759 11.991 16.3743C12.1098 16.4208 12.3149 16.4056 12.2245 16.6453L11.9607 16.8156C11.5975 16.4354 11.0856 16.3761 10.634 16.1993C7.34548 14.9117 4.05008 13.6424 0.756836 12.3673L0.872614 12.1052Z" fill="#A4AEFE"/>
<path d="M18.511 27.934L18.3362 28.1086C18.2376 28.0491 18.1358 27.9955 18.0311 27.9481C13.2934 26.102 8.55468 24.2589 3.81482 22.4186C3.42634 22.2681 3.07082 21.9754 2.61162 22.0667L2.34082 21.726C2.53875 21.5711 2.69612 21.7431 2.85692 21.8054C6.19752 23.0982 9.53658 24.3953 12.8741 25.6965C14.7567 26.4325 16.6322 27.1875 18.511 27.934Z" fill="#64C0F8"/>
<path d="M18.5098 27.9339C16.6311 27.1874 14.7555 26.4324 12.8728 25.6963C9.5365 24.392 6.19744 23.095 2.85565 21.8052C2.69485 21.743 2.53748 21.571 2.33955 21.7259L2.07324 21.3792C3.08874 21.5085 3.97921 22.0176 4.91529 22.3768C9.47668 24.1277 14.0255 25.9126 18.5783 27.6866C18.6167 27.7063 18.653 27.73 18.6866 27.7573L18.5098 27.9339Z" fill="#66C0F9"/>
<path d="M2.61035 22.0666C3.06955 21.9753 3.42507 22.2681 3.81355 22.4186C8.55475 24.2554 13.2935 26.0985 18.0298 27.948C18.1345 27.9954 18.2363 28.049 18.3349 28.1085C18.2905 28.1483 18.246 28.1881 18.2015 28.2279C16.2597 27.4788 14.3181 26.7295 12.3765 25.98C9.17373 24.7401 5.97146 23.499 2.76969 22.2565L2.61035 22.0666Z" fill="#62C0F8"/>
<path d="M18.7962 2.84193C17.1549 2.21916 15.5151 1.59213 13.8717 0.975601C13.2066 0.726229 12.533 0.499776 11.8633 0.262864C12.0702 0.202956 12.2772 0.143086 12.4842 0.083252L12.6584 0.0834374L12.8341 0.0861818L13.0095 0.0874799L13.1852 0.0884812L13.1854 0.0899647C14.2891 0.529779 15.3862 0.989249 16.5001 1.40028C16.9878 1.58023 17.4372 1.90711 17.9922 1.87199C18.3248 2.13392 18.5989 2.46452 18.7962 2.84193Z" fill="#E5AFE4"/>
<path d="M18.0245 28.404L17.8471 28.5824C13.7854 27.0056 9.72285 25.4313 5.65943 23.8594C5.03259 23.6186 4.44896 23.2147 3.73628 23.2445C3.55299 23.0653 3.36974 22.8861 3.18652 22.7068C4.30077 23.1171 5.42049 23.5124 6.52804 23.9403C10.3625 25.4222 14.1947 26.9101 18.0245 28.404Z" fill="#5EC2F6"/>
<path d="M18.0253 28.4041C14.1935 26.9154 10.3613 25.4275 6.52883 23.9406C5.42128 23.5126 4.30155 23.1172 3.18731 22.707C3.04829 22.5568 2.90936 22.4066 2.77051 22.2563C5.97269 23.4977 9.17495 24.7389 12.3773 25.9799C14.3182 26.7312 16.2598 27.4806 18.2023 28.2278C18.1434 28.2865 18.0844 28.3453 18.0253 28.4041Z" fill="#60C2F6"/>
<path d="M0.755747 12.3679C4.04899 13.643 7.34439 14.9123 10.633 16.1999C11.0846 16.3767 11.5965 16.4361 11.9596 16.8162C11.9084 16.8511 11.8574 16.8859 11.8064 16.9207C11.6681 16.881 11.5259 16.8515 11.3919 16.7999C7.79828 15.4148 4.20507 14.0284 0.612305 12.6404L0.755747 12.3679Z" fill="#A2AFFE"/>
<path d="M0.614498 12.6406C4.20753 14.0277 7.80074 15.4142 11.3941 16.8001C11.5281 16.8517 11.6703 16.8811 11.8085 16.9209C11.719 17.0084 11.6296 17.0959 11.5403 17.1834C11.1609 17.0355 10.7814 16.8876 10.4019 16.7398C7.10717 15.4621 3.81239 14.1845 0.517578 12.9071L0.614498 12.6406Z" fill="#A0AFFE"/>
<path d="M12.4818 23.6755L12.485 23.9434C9.48416 22.7865 6.48858 21.6152 3.47904 20.4822C2.64054 20.1666 1.85312 19.6873 0.938639 19.594L0.768555 19.2296C0.911668 19.0787 1.04959 19.215 1.16665 19.2605C4.94021 20.7272 8.71193 22.1989 12.4818 23.6755Z" fill="#72BCFC"/>
<path d="M17.6671 28.7608L17.4885 28.9383C13.6812 27.4519 9.87815 25.9539 6.06124 24.4936C5.56926 24.3054 5.11902 23.9083 4.5303 24.0311L4.08887 23.5935C4.21115 23.4424 4.34041 23.5655 4.44457 23.606C8.85366 25.3201 13.2612 27.0383 17.6671 28.7608Z" fill="#5AC3F5"/>
<path d="M17.6664 28.7612C13.2595 27.0412 8.852 25.3229 4.44383 23.6064C4.33967 23.5659 4.21041 23.4428 4.08813 23.5938L3.73535 23.245C4.44799 23.2151 5.03166 23.619 5.6585 23.8598C9.72538 25.4224 13.788 26.9967 17.8462 28.5828C17.7863 28.6423 17.7264 28.7017 17.6664 28.7612Z" fill="#5CC3F5"/>
<path d="M0.516488 12.9067C3.81128 14.1843 7.10606 15.4618 10.4008 16.7395C10.7805 16.8867 11.16 17.0346 11.5392 17.1831C11.4853 17.244 11.4315 17.3049 11.3778 17.3659C11.0213 17.2453 10.66 17.1377 10.3091 17.0021C7.01367 15.7286 3.71923 14.4524 0.425781 13.1735L0.516488 12.9067Z" fill="#9EB0FE"/>
<path d="M0.425752 13.1731C3.71996 14.4499 7.01445 15.7261 10.3092 17.0016C10.6601 17.1372 11.0215 17.2449 11.3778 17.3654C11.3186 17.454 11.2596 17.5426 11.2007 17.6313C11.1179 17.6051 11.0335 17.5835 10.9527 17.5522C7.41512 16.1821 3.87781 14.8114 0.34082 13.4402L0.425752 13.1731Z" fill="#9CB0FE"/>
<path d="M0.340621 13.4407C3.87783 14.8116 7.41514 16.1822 10.9526 17.5526C11.0334 17.5839 11.1177 17.6056 11.2003 17.6317C11.1369 17.7548 11.0735 17.8779 11.0103 18.0011C10.9473 17.9306 10.8974 17.8253 10.8194 17.795C7.30174 16.4285 3.78251 15.0662 0.261719 13.708L0.340621 13.4407Z" fill="#9AB1FE"/>
<path d="M4.53125 24.0312C5.11996 23.9084 5.57021 24.3056 6.06219 24.4937C9.87909 25.954 13.682 27.452 17.4894 28.9384L17.3126 29.1154C14.117 27.8665 10.9268 26.6034 7.72271 25.3776C6.78685 25.0195 5.89638 24.5155 4.8837 24.3808L4.53125 24.0312Z" fill="#58C3F4"/>
<path d="M0.261197 13.708C3.78106 15.0687 7.30029 16.431 10.8189 17.795C10.8969 17.8253 10.9468 17.9307 11.0097 18.0009C10.9793 18.0876 10.949 18.1743 10.9187 18.2611C10.9004 18.0776 10.7574 18.0361 10.6195 17.9824C7.30107 16.6896 3.98261 15.3965 0.664113 14.1031C0.497099 14.0382 0.313677 13.9191 0.167969 14.1492L0.261197 13.708Z" fill="#99B1FE"/>
<path d="M4.88379 24.3809C5.89647 24.5155 6.78694 25.0195 7.72281 25.3776C10.9268 26.6034 14.1171 27.8665 17.3126 29.1154L17.0375 29.3874C16.9754 29.1086 16.7078 29.1143 16.5248 29.0425C13.913 28.0159 11.2997 26.993 8.67724 25.9949C7.53529 25.5603 6.43362 25.0089 5.23547 24.7324L4.88379 24.3809Z" fill="#56C5F4"/>
<path d="M5.23438 24.7322C6.43253 25.0086 7.5342 25.56 8.67614 25.9947C11.2986 26.9928 13.9119 28.0157 16.5238 29.0423C16.7067 29.1142 16.9742 29.1085 17.0365 29.3872L16.8607 29.5626C16.8486 29.359 16.6713 29.3602 16.5456 29.3109C14.0454 28.3314 11.5503 27.3379 9.03977 26.3867C7.92473 25.9642 6.85375 25.4096 5.67464 25.1694L5.23438 24.7322Z" fill="#54C5F3"/>
<path d="M26.5525 13.1704C24.9897 12.5367 23.4291 11.8972 21.8635 11.2707C20.3091 10.6488 18.7498 10.04 17.1924 9.42537C17.3133 9.3689 17.4344 9.31248 17.5555 9.2561L26.3823 12.7268L26.5525 13.1704Z" fill="#CEACF7"/>
<path d="M0.0810547 14.686L0.160469 14.241C1.88443 14.896 3.60835 15.5511 5.33224 16.2064C7.19146 16.9147 9.05025 17.6243 10.9086 18.3354C10.8826 18.4565 10.8565 18.5777 10.8304 18.6988C10.7418 18.6248 10.6457 18.5608 10.5436 18.5077C7.17898 17.1915 3.81348 15.8774 0.447132 14.5656C0.304604 14.5099 0.191313 14.4866 0.159445 14.686L0.0810547 14.686Z" fill="#95B1FE"/>
<path d="M10.9083 18.3356C9.04954 17.6258 7.19079 16.9161 5.332 16.2066C3.60855 15.55 1.8846 14.8949 0.160156 14.2412L0.168124 14.149C0.313868 13.9188 0.49729 14.0379 0.664304 14.1029C3.98326 15.3946 7.30168 16.6877 10.6195 17.9822C10.7575 18.036 10.9003 18.0774 10.9187 18.2609C10.9217 18.2863 10.9181 18.312 10.9083 18.3356Z" fill="#97B1FE"/>
<path d="M12.4829 22.6978C12.4829 22.7867 12.4829 22.8755 12.4829 22.9644C10.4071 22.1596 8.33328 21.3495 6.25492 20.5515C4.31394 19.8062 2.36828 19.0739 0.424525 18.3359C0.389149 18.2214 0.35376 18.107 0.318359 17.9926L0.3393 17.9778C2.46261 18.8125 4.58354 19.6534 6.70981 20.4802C8.63116 21.2275 10.5582 21.9593 12.4829 22.6978Z" fill="#7BB9FE"/>
<path d="M0.423828 18.3359C2.36758 19.074 4.31324 19.8063 6.25422 20.5515C8.33258 21.3495 10.4064 22.1596 12.4822 22.9644C12.4822 23.0531 12.4822 23.1417 12.4822 23.2304C8.61489 21.7159 4.74738 20.2018 0.8797 18.6879C0.760817 18.6414 0.620225 18.5651 0.591537 18.7923L0.423828 18.3359Z" fill="#79BAFD"/>
<path d="M0.0797827 14.6865H0.158063L10.8202 18.8699L10.8179 19.1372L0.0664062 14.9523L0.0797827 14.6865Z" fill="#92B3FE"/>
<path d="M0.592773 18.792C0.621316 18.5649 0.762052 18.6412 0.880936 18.6877C4.74884 20.2008 8.61636 21.715 12.4835 23.2302C12.4833 23.2898 12.4832 23.3494 12.4831 23.4091C9.24242 22.1596 6.0068 20.8961 2.7569 19.672C2.0735 19.4145 1.44071 18.97 0.668532 18.9834L0.592773 18.792Z" fill="#77BAFD"/>
<path d="M13.4505 12.1036C11.9005 11.5225 10.3477 10.9489 8.8014 10.3581C7.63329 9.91182 6.47344 9.4436 5.30957 8.98509C5.48499 8.95624 5.66035 8.92744 5.83565 8.89868C6.65288 9.19579 7.47213 9.48714 8.28677 9.79118C9.78072 10.3487 11.272 10.9137 12.7644 11.4756L13.4505 12.1036Z" fill="#BCADFE"/>
<path d="M0.0673898 14.9521L10.8189 19.1369C10.8228 19.2262 10.8266 19.3156 10.8304 19.405C7.41699 18.073 4.00494 16.7375 0.585207 15.4228C0.457296 15.3736 0.180133 15.0172 0.0728715 15.4878L0.0716293 15.8434H0L0.0673898 14.9521Z" fill="#90B3FE"/>
<path d="M5.6748 25.1692C6.85392 25.4094 7.92489 25.9639 9.03993 26.3864C11.5506 27.3377 14.0456 28.3311 16.5457 29.3107C16.6714 29.3599 16.8488 29.3589 16.8609 29.5624L16.6848 29.7371C16.6716 29.5327 16.4924 29.5366 16.3671 29.4875C14.2558 28.66 12.1502 27.8167 10.0277 27.0199C8.71157 26.5259 7.44541 25.8898 6.07213 25.556L5.6748 25.1692Z" fill="#51C6F3"/>
<path d="M25.1753 10.8542C23.5992 10.263 22.0232 9.67177 20.4471 9.08045C19.6584 8.78423 18.87 8.48697 18.082 8.1887L18.0822 7.74365L20.0082 8.45572L20.0792 8.75698L21.1413 8.89791L24.3852 10.1436L25.1753 10.8542Z" fill="#D4ADF3"/>
<path d="M12.7637 11.4757C11.2713 10.9138 9.78004 10.3488 8.28608 9.79127C7.47144 9.48716 6.6522 9.19588 5.83496 8.89878L6.97687 8.81055L11.7945 10.678L12.7637 11.4757Z" fill="#BEADFE"/>
<path d="M0.666992 18.9837C1.43917 18.9703 2.07177 19.4147 2.75536 19.6722C6.00526 20.8963 9.24087 22.1599 12.4815 23.4093L12.4817 23.6755C8.71072 22.2019 4.93899 20.7302 1.16657 19.2604C1.04962 19.2149 0.911592 19.0787 0.768479 19.2295L0.666992 18.9837Z" fill="#75BCFC"/>
<path d="M6.07227 25.5562C7.44554 25.8899 8.71171 26.5261 10.0278 27.0201C12.1503 27.8169 14.2559 28.6602 16.3672 29.4876C16.4925 29.5367 16.6717 29.5328 16.685 29.7372L16.5089 29.91C16.3903 29.808 16.2611 29.7197 16.1234 29.6467C15.2037 29.2801 14.2796 28.925 13.3556 28.5697C11.0471 27.6821 8.73825 26.7954 6.42895 25.9097L6.07227 25.5562Z" fill="#4FC6F2"/>
<path d="M12.78 24.4667C9.18737 23.077 5.59442 21.6879 2.00117 20.2996C1.73161 20.1957 1.45009 20.1236 1.17395 20.0367C1.12523 19.9476 1.07668 19.8586 1.02832 19.7696C1.1071 19.7652 1.18611 19.7719 1.26309 19.7894C3.42239 20.6197 5.58484 21.4417 7.73677 22.2913C9.38564 22.9425 11.0209 23.6289 12.6623 24.2998L12.78 24.4667Z" fill="#70BDFB"/>
<path d="M6.42969 25.9102C8.7386 26.7967 11.0475 27.6834 13.3563 28.5702C14.2803 28.9255 15.2045 29.2806 16.1241 29.6472C16.2618 29.7202 16.3911 29.8085 16.5096 29.9105L16.3327 30.084C16.2132 29.9832 16.0831 29.8959 15.9449 29.8238C13.7764 28.9736 11.6128 28.1093 9.43002 27.2988C8.61852 26.9975 7.85936 26.5241 6.97078 26.4517L6.42969 25.9102Z" fill="#4DC6F2"/>
<path d="M6.9707 26.4517C7.85928 26.5241 8.61844 26.9975 9.42994 27.2988C11.6127 28.1093 13.7763 28.9736 15.9448 29.8238C16.083 29.8959 16.2131 29.9832 16.3327 30.0839L16.1568 30.2595C16.0718 30.1866 15.979 30.1236 15.8801 30.0716C13.6762 29.2099 11.4742 28.3426 9.26234 27.5022C8.65594 27.2718 8.09288 26.8918 7.41276 26.8868L6.9707 26.4517Z" fill="#4BC7F1"/>
<path d="M7.41309 26.8867C8.0932 26.8917 8.65626 27.2717 9.26267 27.5021C11.4745 28.3425 13.6765 29.2097 15.8805 30.0715C15.9793 30.1235 16.0721 30.1865 16.1571 30.2594L15.9809 30.4347C15.9271 30.3864 15.8678 30.3448 15.8043 30.3107C13.8424 29.5435 11.8842 28.7656 9.91362 28.0221C9.23624 27.7665 8.60316 27.3628 7.85386 27.324L7.41309 26.8867Z" fill="#48C8F1"/>
<path d="M7.85352 27.3242C8.6027 27.3631 9.23589 27.7668 9.91327 28.0223C11.8839 28.7659 13.8419 29.5437 15.804 30.311C15.8675 30.345 15.9267 30.3866 15.9805 30.4349L15.8044 30.6101C14.231 29.9857 12.6649 29.3415 11.0816 28.7447C10.16 28.3972 9.29312 27.8815 8.29338 27.763L7.85352 27.3242Z" fill="#46C9F0"/>
<path d="M8.29297 27.7625C9.29271 27.8811 10.1596 28.3966 11.0812 28.7441C12.6645 29.341 14.2306 29.9852 15.804 30.6095L15.5421 30.8703C15.4502 30.7887 15.3712 30.6727 15.2641 30.6304C13.8853 30.0854 12.5118 29.5238 11.117 29.0243C10.3262 28.7411 9.59729 28.2637 8.73309 28.2006L8.29297 27.7625Z" fill="#44C9F0"/>
<path d="M12.6619 24.2989C11.0205 23.628 9.38521 22.9415 7.73652 22.2903C5.5846 21.4406 3.42215 20.6186 1.26285 19.7884C1.18586 19.7708 1.10686 19.7642 1.02808 19.7686L0.939453 19.5933C1.8539 19.6866 2.64132 20.1658 3.47982 20.4815C6.48918 21.6145 9.48476 22.7857 12.4856 23.9429L12.5631 24.0325C12.5961 24.1212 12.629 24.21 12.6619 24.2989Z" fill="#72BDFB"/>
<path d="M16.5098 3.19995C17.2725 3.2172 17.8961 3.68082 18.6031 3.88031C18.932 3.99203 19.2543 4.12286 19.5684 4.27217L19.8266 5.07229L17.2907 4.09542L16.5098 3.19995Z" fill="#E1AFE8"/>
<path d="M10.4681 0.797607C11.6043 1.13535 12.7165 1.55152 13.7968 2.04321C13.2726 2.10129 12.7485 2.15939 12.2243 2.21752C12.1996 2.03394 12.0485 2.00779 11.9147 1.95591C11.2298 1.69022 10.5453 1.42335 9.86133 1.15531L10.4681 0.797607Z" fill="#E1AEE8"/>
<path d="M8.7334 28.2009C9.59759 28.264 10.3265 28.7414 11.1173 29.0247C12.5122 29.5242 13.8856 30.0858 15.2644 30.6308C15.3715 30.6731 15.4505 30.789 15.5424 30.8706L15.3645 31.0467C13.3294 30.115 11.2473 29.2928 9.127 28.5833L8.7334 28.2009Z" fill="#42C9EF"/>
<path d="M11.7952 10.6776L6.97754 8.81018C8.85427 8.70822 10.3804 9.54416 11.7952 10.6776Z" fill="#C1AEFE"/>
<path d="M26.3825 12.7271L17.5557 9.25635L17.8129 9.16553C20.4063 10.1741 23.0001 11.1819 25.5942 12.189C25.7947 12.2667 26.0075 12.3117 26.2146 12.3719L26.3825 12.7271Z" fill="#CEADF6"/>
<path d="M9.12695 28.5833C11.2473 29.2927 13.3293 30.115 15.3644 31.0466L15.1896 31.2207L9.57161 29.027L9.12695 28.5833Z" fill="#3FC9EF"/>
<path d="M9.57129 29.0271L15.1892 31.2208C15.1463 31.2616 15.1032 31.3024 15.0602 31.3431C14.9215 31.3053 14.7789 31.2785 14.6451 31.2278C13.1011 30.6439 11.5579 30.058 10.0155 29.4699L9.57129 29.0271Z" fill="#3CCBED"/>
<path d="M10.0156 29.4697C11.5586 30.0563 13.1018 30.6422 14.6452 31.2276C14.7791 31.2783 14.9216 31.3051 15.0603 31.343C14.9698 31.4328 14.8792 31.5227 14.7885 31.6125C14.0905 31.332 13.4034 31.0169 12.6911 30.7812C12.0084 30.5552 11.3928 30.1192 10.6462 30.0932L10.0156 29.4697Z" fill="#39CBED"/>
<path d="M11.3485 2.57527L10.9063 2.84619C10.1667 2.70497 9.45732 2.43289 8.81055 2.04237L9.16632 1.69189C9.94735 1.82554 10.6913 2.1267 11.3485 2.57527Z" fill="#DDAFEB"/>
<path d="M19.9996 6.05032C20.0021 6.19975 20.0047 6.34919 20.0072 6.49862L17.9823 5.69955L17.8193 5.16305C18.0771 4.96107 19.7818 5.65486 19.9996 6.05032Z" fill="#DDAFEB"/>
<path d="M10.6465 30.0933C11.393 30.1192 12.0087 30.5553 12.6914 30.7812C13.4037 31.017 14.0907 31.3321 14.7888 31.6126C14.7302 31.6705 14.6715 31.7283 14.6128 31.7862C14.2454 31.6603 13.8808 31.5253 13.5101 31.4104C12.7249 31.1672 12.0254 30.6625 11.1755 30.6174L10.6465 30.0933Z" fill="#37CBEC"/>
<path d="M7.95312 3.11575L8.28295 2.66748L10.2297 3.38823L9.86644 3.83305C9.22869 3.59391 8.59092 3.35481 7.95312 3.11575Z" fill="#D8AFEF"/>
<path d="M9.33824 4.71758C9.25343 4.93022 9.16858 5.14269 9.0837 5.355C8.58302 4.88281 7.89717 4.82465 7.31543 4.53371C7.35083 4.41644 7.38623 4.29917 7.42163 4.1819C8.14688 4.03997 8.66865 4.65294 9.33824 4.71758Z" fill="#D2AEF4"/>
<path d="M11.1748 30.6177C12.0247 30.6627 12.7243 31.1674 13.5094 31.4107C13.8801 31.5256 14.2447 31.6605 14.6121 31.7864C14.5228 31.8759 14.4334 31.9653 14.3439 32.0547C14.0638 31.9412 13.7899 31.8071 13.5024 31.7185C12.9005 31.5331 12.3632 31.137 11.7027 31.1439L11.1748 30.6177Z" fill="#34CCEC"/>
<path d="M19.9991 6.05002C19.7813 5.65456 18.0768 4.96078 17.8189 5.16275C17.7068 4.9254 17.5947 4.68804 17.4824 4.45068C18.0708 4.67691 18.6525 4.9238 19.2512 5.11562C19.4213 5.1701 19.6234 5.45875 19.8323 5.15608L19.9991 6.05002Z" fill="#DFB0EA"/>
<path d="M20.0071 7.21054C20.0071 7.38856 20.0071 7.56657 20.0071 7.74459L18.0813 7.03185C18.0806 6.85384 18.0798 6.67582 18.0791 6.4978L20.0071 7.21054Z" fill="#D8AEEF"/>
<path d="M11.3493 2.5755C10.692 2.12692 9.94805 1.82576 9.16699 1.69213C9.34129 1.54709 9.51549 1.40199 9.6896 1.25684C10.4297 1.75199 11.2648 2.08244 12.1399 2.22644L11.3493 2.5755Z" fill="#DFB0EA"/>
<path d="M7.31483 4.53369C7.89656 4.82453 8.58249 4.88279 9.08309 5.35498C9.05546 5.47054 9.02776 5.58602 8.99999 5.70141L7.15918 4.98667L7.31483 4.53369Z" fill="#D0ADF5"/>
<path d="M6.9834 5.9656C7.00913 5.81601 7.03488 5.66643 7.06066 5.51685C7.67049 5.82723 8.4313 5.81666 8.90501 6.41628C8.90486 6.50281 8.90474 6.58942 8.90464 6.67611L6.9834 5.9656Z" fill="#CCADF8"/>
<path d="M6.98261 5.96509L8.90371 6.67564C8.91872 6.77402 8.91145 6.87457 8.88245 6.96968C8.85346 7.06478 8.8035 7.15193 8.73637 7.22452C8.20872 6.80095 7.41707 6.90647 6.97461 6.31218L6.98261 5.96509Z" fill="#CAACFA"/>
<path d="M10.23 3.38826L8.2832 2.66751L8.55481 2.31519C9.18669 2.62482 9.93087 2.68097 10.4721 3.19533L10.23 3.38826Z" fill="#DAAFEE"/>
<path d="M6.97499 6.31274C7.41719 6.90691 8.2091 6.8014 8.73675 7.22508C8.69768 7.42754 8.53512 7.49419 8.37633 7.56495C7.95328 7.3721 7.57452 7.04176 7.06215 7.12621C6.97351 7.01276 6.91829 6.87618 6.90287 6.73224C6.88745 6.58831 6.91245 6.44288 6.97499 6.31274Z" fill="#C9AEFB"/>
<path d="M11.7021 31.1441C12.3627 31.1372 12.9 31.5333 13.5018 31.7187C13.7893 31.8072 14.0633 31.9412 14.3433 32.0549L14.0656 32.3236C13.4787 32.0348 12.9138 31.6818 12.2314 31.6717L11.7021 31.1441Z" fill="#32CDEB"/>
<path d="M20.006 7.20981L18.0781 6.49707C18.0777 6.4407 18.0774 6.38429 18.0771 6.32785L18.1399 6.04688L20.006 6.76484L20.006 7.20981Z" fill="#DAAFEE"/>
<path d="M9.33751 4.71738C8.66791 4.65274 8.14611 4.03977 7.4209 4.1817C7.48156 4.03404 7.54218 3.8864 7.60275 3.73877L9.51687 4.36246L9.33751 4.71738Z" fill="#D4AEF3"/>
<path d="M19.8325 5.15623C19.6235 5.45889 19.4214 5.17025 19.2514 5.11576C18.6525 4.92395 18.0707 4.67691 17.4826 4.45083C17.4188 4.33253 17.3549 4.21423 17.291 4.09595L19.8269 5.07282C19.8324 5.10024 19.8343 5.12829 19.8325 5.15623Z" fill="#DFAEE9"/>
<path d="M12.1406 2.2264C11.2656 2.08238 10.4305 1.75193 9.69043 1.2568C9.74732 1.2231 9.8042 1.18934 9.86106 1.15552C10.5454 1.42254 11.2299 1.68943 11.9145 1.95619C12.0482 2.00811 12.1993 2.03407 12.2241 2.2178C12.1968 2.22507 12.1687 2.22797 12.1406 2.2264Z" fill="#DFAEE9"/>
<path d="M8.9049 6.41549C8.4312 5.81586 7.67039 5.82643 7.06055 5.51605C7.06498 5.45671 7.06942 5.39729 7.07385 5.33778C7.14206 5.29764 7.21969 5.27694 7.29853 5.27786C7.37737 5.27878 7.45451 5.30129 7.52179 5.34301C8.00482 5.53248 8.49654 5.69904 8.98486 5.87428L8.9049 6.41549Z" fill="#CEADF7"/>
<path d="M18.0822 7.03125L20.0078 7.74399V8.01038L18.082 7.29831L18.0822 7.03125Z" fill="#D6AEF0"/>
<path d="M7.9537 3.11572C8.59145 3.35483 9.2292 3.59393 9.86698 3.83302C9.80733 3.91973 9.74764 4.00642 9.6879 4.09308L7.83496 3.37618L7.9537 3.11572Z" fill="#D6AEF0"/>
<path d="M10.472 3.19578C9.93075 2.68142 9.18675 2.62527 8.55469 2.31563C8.64013 2.22477 8.72556 2.13388 8.81098 2.04297C9.45775 2.43347 10.1671 2.70554 10.9067 2.84675L10.472 3.19578Z" fill="#DBB0ED"/>
<path d="M20.0073 6.76536L18.1412 6.04739L18.0784 6.32836C18.0465 6.1187 18.0145 5.90898 17.9824 5.69922C18.6573 5.9656 19.3322 6.23197 20.0071 6.49833C20.0072 6.58734 20.0073 6.67635 20.0073 6.76536Z" fill="#DBAFED"/>
<path d="M18.082 7.29907L20.0078 8.01114C20.0078 8.10015 20.0078 8.18916 20.0078 8.27817L18.0822 7.5661L18.082 7.29907Z" fill="#D6ADF1"/>
<path d="M7.83362 3.37646L9.68674 4.09336C9.65446 4.15287 9.62222 4.21242 9.59001 4.272C8.98656 3.99248 8.30641 3.89412 7.76367 3.47093L7.83362 3.37646Z" fill="#D6ADF1"/>
<path d="M7.0625 7.12585C7.57487 7.0414 7.95363 7.37177 8.37668 7.56459C7.83142 7.75121 7.34514 7.75455 7.0625 7.12585Z" fill="#C8AFFC"/>
<path d="M8.98524 5.87463C8.49691 5.69925 8.00519 5.53284 7.52216 5.34336C7.45488 5.30165 7.37774 5.27914 7.2989 5.27822C7.22006 5.2773 7.14243 5.298 7.07422 5.33813C7.10282 5.22087 7.1314 5.1036 7.15996 4.98633L9.0008 5.7011C8.99569 5.75899 8.9905 5.81683 8.98524 5.87463Z" fill="#CFAEF6"/>
<path d="M7.76508 3.47021C8.30782 3.89341 8.98798 3.99177 9.59142 4.27129C9.56676 4.30148 9.54215 4.33167 9.5176 4.36186L7.60352 3.73817C7.65743 3.64884 7.71129 3.55952 7.76508 3.47021Z" fill="#D5AFF1"/>
<path d="M18.0821 7.56567L20.0078 8.27774V8.45576L18.082 7.74369L18.0821 7.56567Z" fill="#D4AEF1"/>
<path d="M0 15.8438H0.0716286V15.9328L0.0718475 16.1998L0.0733462 16.4676L0.0775856 16.7305L0.0577783 16.7399C0.0384823 16.4413 0.0192229 16.1425 0 15.8438Z" fill="#8EB4FE"/>
<path d="M1.29306 11.4756L1.20703 11.5712L1.29306 11.4756Z" fill="#AAAFFE"/>
<path d="M21.3987 25.0829L20.9905 25.4689L14.5 22.9641L14.5002 22.3411C15.5159 22.7298 16.5358 23.1074 17.5461 23.5101C18.8344 24.0237 20.1149 24.5577 21.3987 25.0829Z" fill="#83B7FE"/>
<path d="M21.9253 24.5553L21.5721 24.9071C21.378 24.8116 21.1895 24.7016 20.9891 24.6227C18.8272 23.7703 16.6641 22.9208 14.5 22.0742L14.5064 21.6292C14.6216 21.6332 14.7361 21.6503 14.8476 21.6801C16.4062 22.2884 17.9677 22.8898 19.5173 23.5216C20.3256 23.851 21.2004 24.0239 21.9253 24.5553Z" fill="#88B6FE"/>
<path d="M22.98 23.5053L22.6275 23.8545C22.5079 23.7537 22.378 23.6663 22.2401 23.5935C21.2666 23.2035 20.2968 22.8012 19.3095 22.4503C17.9959 21.9835 16.747 21.3345 15.3838 21.0089C15.5032 20.8598 15.6226 20.7108 15.7422 20.5618C17.5471 21.2621 19.3589 21.9451 21.1533 22.6724C21.7712 22.9228 22.4598 23.0284 22.98 23.5053Z" fill="#93B3FE"/>
<path d="M15.373 17.0813C16.4036 17.2582 17.3197 17.769 18.2849 18.1329C20.502 18.9688 22.7053 19.8428 24.9125 20.7058C25.0292 20.7632 25.1408 20.8309 25.2458 20.9081C25.1957 20.9729 25.1456 21.0378 25.0955 21.1027C22.8465 20.2403 20.6011 19.3684 18.3469 18.5206C17.5071 18.2048 16.715 17.7442 15.8085 17.6231L15.373 17.0813Z" fill="#A7AEFE"/>
<path d="M21.9249 24.5552C21.1999 24.024 20.3251 23.8511 19.5168 23.5216C17.9673 22.8899 16.4058 22.2885 14.8471 21.6802C14.7356 21.6503 14.6211 21.6332 14.5059 21.6292C14.7058 21.5061 14.9059 21.3831 15.1059 21.26C16.243 21.724 17.3853 22.1751 18.5156 22.6554C19.7638 23.1857 21.0865 23.5283 22.2759 24.2056L21.9249 24.5552Z" fill="#8CB4FE"/>
<path d="M15.8076 17.6235C16.7142 17.7447 17.5062 18.2054 18.346 18.521C20.6003 19.3688 22.8457 20.2407 25.0946 21.1031C25.0042 21.2245 24.9137 21.346 24.823 21.4673C24.762 21.4059 24.693 21.3533 24.6179 21.3109C21.8372 20.2186 19.0558 19.1281 16.2736 18.0396C16.1387 17.9867 16.0841 18.0329 16.0675 18.1639C15.9809 17.9838 15.8943 17.8036 15.8076 17.6235Z" fill="#A5AEFE"/>
<path d="M16.0693 18.1639C16.0859 18.0329 16.1405 17.9866 16.2754 18.0395C19.0566 19.1307 21.8381 20.2212 24.6197 21.311C24.6948 21.3534 24.7638 21.406 24.8248 21.4674C24.7626 21.5502 24.7004 21.633 24.6382 21.7159C24.508 21.6246 24.3708 21.5442 24.2279 21.4755C22.3606 20.7487 20.495 20.017 18.6198 19.3123C17.8035 19.0055 17.032 18.5623 16.1527 18.4391C16.1249 18.3473 16.0971 18.2556 16.0693 18.1639Z" fill="#A4AEFE"/>
<path d="M16.1523 18.4387C17.0317 18.5618 17.8032 19.0051 18.6195 19.3118C20.4947 20.0165 22.3603 20.7482 24.2275 21.4749C24.3704 21.5436 24.5076 21.624 24.6377 21.7153C24.5843 21.778 24.5308 21.8408 24.4773 21.9035L16.2831 18.711L16.2488 19.0479L16.2467 19.3149L16.1728 19.4039C16.166 19.0822 16.1591 18.7605 16.1523 18.4387Z" fill="#A2AFFE"/>
<path d="M16.2471 19.0483L16.2814 18.7114L24.4756 21.9039C24.3829 22.0165 24.2902 22.129 24.1974 22.2414C24.1339 22.1689 24.0841 22.0597 24.005 22.0291C21.4207 21.0309 18.8348 20.0373 16.2471 19.0483Z" fill="#A0AFFE"/>
<path d="M16.2481 19.0483C18.8347 20.0402 21.4207 21.0338 24.006 22.0292C24.0851 22.0598 24.135 22.169 24.1984 22.2415C24.1412 22.3046 24.0839 22.3676 24.0267 22.4307C23.9286 22.3518 23.8228 22.2833 23.711 22.2262C21.2238 21.2528 18.7355 20.2825 16.2461 19.3153L16.2481 19.0483Z" fill="#9EB0FE"/>
<path d="M14.5 22.9648L20.9905 25.4696C20.9021 25.5581 20.8135 25.6466 20.7249 25.735L14.5002 23.3209L14.5 22.9648Z" fill="#7FB9FE"/>
<path d="M16.2456 19.3154C18.7343 20.2846 21.2226 21.2549 23.7105 22.2263C23.8223 22.2835 23.9281 22.352 24.0262 22.4308L23.8554 22.616L16.1582 19.582L16.1717 19.4045L16.2456 19.3154Z" fill="#9CB0FE"/>
<path d="M16.1585 19.5815L23.8557 22.6155C23.7695 22.707 23.6833 22.7985 23.597 22.89C23.4973 22.7886 23.3843 22.7018 23.261 22.6321C20.87 21.6992 18.477 20.7714 16.082 19.8487C16.1075 19.7596 16.133 19.6706 16.1585 19.5815Z" fill="#9AB1FE"/>
<path d="M22.9802 23.505C22.46 23.0281 21.7714 22.9225 21.1535 22.6721C19.3591 21.9449 17.5473 21.2619 15.7422 20.5615C15.7966 20.4725 15.851 20.3834 15.9055 20.2942C16.8487 20.6706 17.7919 21.0471 18.735 21.4238C20.2393 22.0283 21.7431 22.6342 23.2463 23.2415L22.9802 23.505Z" fill="#95B1FE"/>
<path d="M16.0818 19.8494C18.4754 20.7755 20.8684 21.7033 23.2608 22.6327C23.384 22.7025 23.4971 22.7893 23.5968 22.8906C23.5704 22.9173 23.5439 22.944 23.5174 22.9705C23.3792 22.9311 23.2373 22.902 23.1036 22.8507C20.7319 21.9408 18.3608 21.0294 15.9902 20.1164L16.0818 19.8494Z" fill="#99B1FE"/>
<path d="M15.9897 20.1162C18.3606 21.0282 20.7317 21.9396 23.103 22.8505C23.2367 22.9018 23.3786 22.9309 23.5168 22.9703L23.2452 23.2416C21.7415 22.6356 20.2377 22.0297 18.7339 21.4239C17.7915 21.0452 16.8483 20.6687 15.9043 20.2943C15.9327 20.2349 15.9612 20.1756 15.9897 20.1162Z" fill="#97B1FE"/>
<path d="M15.3843 21.009C16.7475 21.3347 17.9964 21.9836 19.3099 22.4504C20.2972 22.8013 21.267 23.2036 22.2405 23.5937C22.3784 23.6664 22.5083 23.7539 22.6279 23.8546L22.4516 24.0294C22.3816 23.9606 22.3029 23.9014 22.2177 23.8535C20.938 23.3445 19.6599 22.8311 18.3731 22.3411C17.3202 21.9401 16.2563 21.5689 15.1973 21.1844L15.3843 21.009Z" fill="#91B3FE"/>
<path d="M15.1982 21.1841C16.2572 21.5685 17.321 21.9398 18.374 22.3408C19.6608 22.8307 20.9389 23.3442 22.2187 23.8531C22.3039 23.9011 22.3825 23.9602 22.4525 24.029L22.2764 24.2054C21.0871 23.528 19.7643 23.1856 18.5162 22.6552C17.3858 22.175 16.2434 21.7238 15.1064 21.2599C15.137 21.2347 15.1676 21.2095 15.1982 21.1841Z" fill="#8EB4FE"/>
<path d="M19.8337 26.6194L19.5683 26.882C19.5326 26.8213 19.5101 26.7246 19.4591 26.7051C17.6535 26.0139 15.8461 25.3271 14.0371 24.6449L14.3081 24.3838C14.7679 24.5643 15.2296 24.74 15.6873 24.9261C17.0703 25.4884 18.4524 26.0528 19.8337 26.6194Z" fill="#72BCFC"/>
<path d="M14.5 22.074C16.6633 22.9226 18.8263 23.772 20.9891 24.6222C21.1895 24.7012 21.378 24.8111 21.5721 24.9067C21.5143 24.9654 21.4565 25.0241 21.3988 25.0829C20.1149 24.5576 18.8344 24.0236 17.5462 23.5101C16.5359 23.1073 15.5159 22.7297 14.5003 22.341L14.5 22.074Z" fill="#86B6FE"/>
<path d="M20.5408 25.9189C20.4819 25.9777 20.4229 26.0365 20.364 26.0953L14.5004 23.7658L14.5 23.4988C14.632 23.5586 14.7618 23.624 14.8963 23.6775C16.7774 24.4256 18.6589 25.1727 20.5408 25.9189Z" fill="#7BB9FE"/>
<path d="M20.5409 25.9189C18.6593 25.1721 16.7777 24.4249 14.8963 23.6775C14.7618 23.6241 14.632 23.5588 14.5 23.4988V23.3208L20.7247 25.7349C20.6635 25.7963 20.6022 25.8576 20.5409 25.9189Z" fill="#7DB9FE"/>
<path d="M14.4994 23.7651L20.3629 26.0947C20.3042 26.1534 20.2455 26.2121 20.1868 26.2708L14.4736 24.0255C14.4823 23.9387 14.4909 23.8519 14.4994 23.7651Z" fill="#79BAFD"/>
<path d="M14.4738 24.0261L20.1872 26.2715C20.1283 26.3296 20.0693 26.3877 20.0103 26.4458L14.4082 24.2105L14.4738 24.0261Z" fill="#77BAFD"/>
<path d="M19.3038 27.1449C18.5544 26.5891 17.6425 26.417 16.8064 26.07C15.6462 25.5887 14.452 25.1922 13.2725 24.7594C13.4704 24.7515 13.6683 24.7437 13.8663 24.7358C14.6978 25.0424 15.5424 25.3173 16.3577 25.6635C17.3965 26.1049 18.5075 26.3677 19.4806 26.9703L19.3038 27.1449Z" fill="#70BDFB"/>
<path d="M14.4088 24.2095L20.0107 26.4449L19.8342 26.6189C18.4522 26.0542 17.0701 25.4898 15.6878 24.9256C15.2301 24.7395 14.7684 24.5638 14.3086 24.3833L14.4088 24.2095Z" fill="#75BCFC"/>
<path d="M19.4814 26.9698C18.5084 26.3673 17.3974 26.1043 16.3586 25.663C15.5433 25.3168 14.6987 25.0419 13.8672 24.7354C13.9241 24.7051 13.9809 24.6748 14.0377 24.6445C15.8457 25.3294 17.6531 26.0161 19.4598 26.7047C19.5107 26.7243 19.5332 26.8209 19.569 26.8817L19.4814 26.9698Z" fill="#72BDFB"/>
<path d="M26.6553 17.9975C26.6777 17.9637 26.7001 17.9299 26.7225 17.8962C26.7 17.9299 26.6776 17.9637 26.6553 17.9975Z" fill="#BBACFE"/>
<path d="M17.9913 1.87196C17.4364 1.90708 16.9869 1.58019 16.4993 1.40025C15.3852 0.989212 14.2883 0.529742 13.1846 0.0899276L13.7966 0.088407L13.9721 0.0873315L14.1475 0.0857368L14.3229 0.083252H14.4969C15.8193 0.287617 17.0433 0.914132 17.9913 1.87196Z" fill="#E6B0E1"/>
<path d="M24.3845 10.1439L21.1406 8.89819C22.3202 8.9757 23.4499 9.40954 24.3845 10.1439Z" fill="#D5B0F1"/>
<path d="M11.5375 20.9126L12.0605 21.3584C8.85313 20.1147 5.64564 18.8712 2.43797 17.6279C1.65297 17.324 0.864384 17.0297 0.0774817 16.7309C0.0760929 16.6433 0.0746797 16.5557 0.0732422 16.468C0.831273 16.7647 1.58843 17.0642 2.34755 17.3581C5.4106 18.5438 8.47392 19.7287 11.5375 20.9126Z" fill="#86B6FE"/>
<path d="M12.4824 22.6975C10.5576 21.959 8.63062 21.2272 6.70938 20.48C4.58311 19.6532 2.4621 18.8124 0.338867 17.9776C0.416125 17.6673 0.613691 17.8825 0.712328 17.9208C4.63866 19.4461 8.56224 20.9786 12.4831 22.5183C12.4828 22.5781 12.4826 22.6379 12.4824 22.6975Z" fill="#7DB9FE"/>
<path d="M10.8292 18.6987L10.8203 18.8693L0.158203 14.6859C0.189998 14.4865 0.303509 14.5098 0.445891 14.5654C3.81124 15.8798 7.17674 17.1939 10.5424 18.5075C10.6445 18.5606 10.7406 18.6247 10.8292 18.6987Z" fill="#93B3FE"/>
<path d="M10.8961 19.6706C10.9555 19.8486 11.0148 20.0268 11.0742 20.205C7.4066 18.7808 3.73897 17.3566 0.0712891 15.9325V15.8435C0.0716789 15.7248 0.0720927 15.6062 0.0725312 15.4878C0.141676 15.5087 0.212538 15.5249 0.279746 15.5511C3.81869 16.9237 7.35747 18.2969 10.8961 19.6706Z" fill="#8CB4FE"/>
<path d="M10.897 19.6711C7.35827 18.2977 3.81942 16.9245 0.280457 15.5516C0.213249 15.5256 0.142387 15.5092 0.0732422 15.4883C0.180504 15.0177 0.457777 15.3742 0.585577 15.4233C4.00531 16.7381 7.41736 18.0736 10.8307 19.4055C10.8529 19.4941 10.8749 19.5826 10.897 19.6711Z" fill="#8EB4FE"/>
<path d="M0.0712891 15.9324C3.73895 17.3565 7.40658 18.7807 11.0742 20.2048L11.265 20.56L0.0715079 16.1994L0.0712891 15.9324Z" fill="#88B6FE"/>
<path d="M0.0712891 16.1997L11.2648 20.5604C11.3554 20.6777 11.4461 20.795 11.5369 20.9122C8.47359 19.7275 5.41033 18.5427 2.34706 17.3577C1.58794 17.0638 0.830783 16.7645 0.0727515 16.4676C0.0722886 16.3784 0.0718007 16.2891 0.0712891 16.1997Z" fill="#88B6FE"/>
</svg>
