<svg width="58" height="32" viewBox="0 0 58 32" fill="none" xmlns="http://www.w3.org/2000/svg">
<g clip-path="url(#clip0)">
<path d="M0 29.3366V10.2449C0 9.39241 0.245915 8.7945 0.737745 8.45114C1.31666 8.08352 1.99233 7.90392 2.67449 7.93635C3.21001 7.92824 3.74368 8.00192 4.2576 8.15493C4.71861 8.30065 5.01058 8.39415 5.13352 8.43544V24.47H14.8783V29.3366H0Z" fill="#1F2B38"/>
<path d="M42.1377 10.8999C42.1377 8.9244 43.1521 7.93652 45.181 7.93628H54.9871C55.9298 7.93628 56.601 8.13907 57.0007 8.54466C57.2121 8.78262 57.3741 9.0613 57.4771 9.36412C57.5801 9.66694 57.622 9.98769 57.6002 10.3073C57.6059 10.8325 57.5227 11.3548 57.3541 11.8515C57.2501 12.1804 57.1163 12.4989 56.9545 12.8029H47.2716V16.4217H54.1879C55.1306 16.4217 55.8019 16.6244 56.2016 17.0297C56.413 17.2677 56.575 17.5464 56.6779 17.8493C56.7809 18.1521 56.8228 18.4729 56.8011 18.7925C56.807 19.3177 56.7237 19.84 56.555 20.3365C56.451 20.6656 56.3172 20.9841 56.1554 21.2882H47.2716V29.3366H42.1377V10.8999Z" fill="#1F2B38"/>
<path d="M27.4062 31.7505L27.0558 31.9999H26.6264C26.2326 31.7728 25.8856 31.4707 25.6045 31.1101C26.2749 31.1201 26.8297 31.4668 27.4062 31.7505Z" fill="#2FCDEB"/>
<path d="M26.541 0H27.1422C27.1422 0.028901 27.1423 0.0577899 27.1426 0.0866667L26.5412 0.0881603L26.541 0.0867031V0Z" fill="#EABEE6"/>
<path d="M40.1091 15.388V16C40.081 15.9998 40.053 16 40.0249 16.0005L40.0222 15.8251L40.0215 15.3875L40.0246 15.3881C40.0528 15.388 40.0809 15.388 40.1091 15.388Z" fill="#D0C1FE"/>
<path d="M40.1093 16.612C40.083 16.6131 40.0567 16.6147 40.0304 16.6167C40.0274 16.4983 40.0244 16.3798 40.0215 16.2615L40.0269 16.2648C40.0544 16.2624 40.0819 16.2616 40.1095 16.2623L40.1093 16.612Z" fill="#E3DCFE"/>
<path d="M40.033 14.5974C40.0584 14.601 40.0842 14.6022 40.1099 14.6011V14.8633C40.0834 14.8633 40.0568 14.8625 40.0303 14.8609C40.0311 14.7731 40.032 14.6853 40.033 14.5974Z" fill="#EEE7FD"/>
<path d="M40.1098 16.2623C40.0822 16.2616 40.0547 16.2624 40.0272 16.2648C40.0266 16.1767 40.026 16.0886 40.0254 16.0005C40.0535 16.0001 40.0815 15.9999 40.1096 16L40.1098 16.2623Z" fill="#D4C7FE"/>
<path d="M27.8291 0C27.8289 0.0271767 27.8293 0.0543655 27.8305 0.0815665H27.6596C27.6577 0.0543898 27.657 0.027201 27.6573 0H27.8291Z" fill="#FAF1F9"/>
<path d="M40.1099 15.3879C40.0817 15.3879 40.0536 15.3879 40.0254 15.388L40.0264 15.2122C40.0543 15.2128 40.0821 15.213 40.1099 15.213V15.3879Z" fill="#D6C6FD"/>
<path d="M25.8525 0.0815301C25.8539 0.0543534 25.8544 0.0271767 25.8541 0H26.0259C26.0262 0.0272495 26.0254 0.0544991 26.0236 0.0817486L25.8525 0.0815301Z" fill="#F9EFF9"/>
<path d="M26.0234 0.0816758C26.0253 0.0544991 26.0261 0.0272738 26.0257 0H26.1975C26.1977 0.0281724 26.1972 0.0563206 26.1961 0.0844444L26.0234 0.0816758Z" fill="#F4DDF3"/>
<path d="M40.1099 15.2131C40.082 15.2131 40.0542 15.2129 40.0264 15.2123L40.0278 15.0371C40.0551 15.038 40.0825 15.0383 40.1099 15.0383V15.2131Z" fill="#DCCEFD"/>
<path d="M26.1963 0.084408C26.1974 0.0562842 26.1979 0.0281481 26.1977 0H26.3695C26.3695 0.028561 26.3692 0.0571342 26.3686 0.0857195L26.1963 0.084408Z" fill="#EFCFEF"/>
<path d="M40.1095 15.0382C40.0821 15.0382 40.0547 15.0378 40.0273 15.037L40.0195 14.9496L40.0299 14.8608C40.0564 14.8626 40.0829 14.8635 40.1095 14.8634V15.0382Z" fill="#E3D7FD"/>
<path d="M26.3682 0.0857195C26.3688 0.0571099 26.3691 0.0285367 26.369 0H26.5408V0.0867031L26.3682 0.0857195Z" fill="#EDC5E9"/>
<path d="M27.142 0.0866667C27.1417 0.0577899 27.1416 0.028901 27.1416 0H27.3134C27.3134 0.0285367 27.3137 0.0570735 27.3143 0.0856102L27.142 0.0866667Z" fill="#EDC5EA"/>
<path d="M27.3144 0.0855738C27.3137 0.0570613 27.3134 0.0285367 27.3135 0H27.4852C27.485 0.0280267 27.4856 0.0560413 27.4869 0.0840437L27.3144 0.0855738Z" fill="#F0D0ED"/>
<path d="M27.487 0.0840073C27.4857 0.0560291 27.4852 0.0280267 27.4854 0H27.6572C27.6568 0.027201 27.6576 0.0544019 27.6594 0.0816029L27.487 0.0840073Z" fill="#F5DFF3"/>
<path d="M39.7544 17.8327L39.5924 18.2727C38.3442 17.7764 37.0984 17.2734 35.8472 16.785C29.5633 14.3323 23.2786 11.8817 16.9932 9.43316C17.2276 9.32419 17.462 9.2152 17.6964 9.1062C17.7333 9.30744 17.9076 9.31575 18.051 9.37159C25.2856 12.1915 32.5201 15.0118 39.7544 17.8327Z" fill="#B7AEFE"/>
<path d="M39.854 17.4043C39.8563 17.4318 39.8537 17.4595 39.8463 17.4861C39.5896 17.3983 39.3293 17.3197 39.0766 17.2212C33.5582 15.0724 28.0405 12.9216 22.5237 10.7686C21.0491 10.192 19.5857 9.58542 18.1172 8.99256L18.8046 8.82593C19.9476 9.27631 21.0871 9.73624 22.2345 10.1746C23.7535 10.755 25.2787 11.3185 26.8012 11.8891L26.799 11.8876C26.9663 12.0191 27.146 12.1336 27.3353 12.2294C31.4141 13.8243 35.4955 15.4123 39.5794 16.9936C39.7892 17.0746 39.8838 17.1829 39.854 17.4043Z" fill="#BBACFE"/>
<path d="M39.4334 18.6387L39.3359 18.8849C39.2098 18.8655 39.0852 18.8367 38.9632 18.7988C33.048 16.4984 27.1331 14.1968 21.2187 11.894C19.5283 11.2374 17.829 10.6044 16.1338 9.9606L16.4937 9.70508C17.2969 9.99728 18.1055 10.2745 18.9025 10.5842C24.4272 12.7315 29.9502 14.8833 35.4716 17.0395C36.7977 17.5579 38.113 18.1049 39.4334 18.6387Z" fill="#B3AEFE"/>
<path d="M39.1652 19.235C39.0813 19.3856 38.9974 19.5361 38.9134 19.6864C38.6097 19.2651 38.1043 19.2425 37.6842 19.0776C31.8658 16.7941 26.0426 14.5229 20.2149 12.264C18.6569 11.6587 17.0901 11.0772 15.5273 10.4848C15.6169 10.3984 15.7065 10.312 15.7961 10.2256C15.9364 10.2488 16.0748 10.282 16.2106 10.3247C20.7689 12.0968 25.3267 13.8707 29.8838 15.6463C32.9757 16.8475 36.0695 18.0438 39.1652 19.235Z" fill="#B0AEFE"/>
<path d="M39.4339 18.6386C38.1136 18.1048 36.7982 17.5578 35.472 17.0396C29.9511 14.8822 24.428 12.7304 18.9029 10.5841C18.1063 10.2745 17.2974 9.99722 16.4941 9.70502C16.6607 9.61438 16.8272 9.52374 16.9937 9.43311C23.2785 11.8833 29.5632 14.3339 35.8477 16.7849C37.099 17.2733 38.3448 17.7763 39.593 18.2726L39.4339 18.6386Z" fill="#B5AEFE"/>
<path d="M39.1651 19.235C36.0711 18.0391 32.9774 16.8429 29.8837 15.6463C25.3249 13.8752 20.7671 12.1013 16.2103 10.3246C16.0746 10.2819 15.9361 10.2488 15.7959 10.2255C15.9084 10.1372 16.021 10.049 16.1337 9.96069C17.8288 10.6045 19.5281 11.2375 21.2185 11.8941C27.1347 14.1921 33.0495 16.4937 38.963 18.7989C39.085 18.8368 39.2096 18.8655 39.3357 18.885L39.1651 19.235Z" fill="#B1AEFE"/>
<path d="M38.8257 19.848C38.7378 19.9909 38.6498 20.1339 38.5619 20.277C38.529 20.0616 38.3328 20.0833 38.1985 20.0307C34.8187 18.7088 31.4378 17.3898 28.0559 16.0737C23.7154 14.3858 19.3742 12.6999 15.0322 11.0161C15.1123 10.926 15.1924 10.8359 15.2725 10.7458C21.2959 13.0829 27.3195 15.4194 33.3434 17.7553C35.1675 18.4617 36.9981 19.1509 38.8257 19.848Z" fill="#ACAEFE"/>
<path d="M38.8256 19.848C36.998 19.1509 35.1676 18.4617 33.3433 17.7553C27.3185 15.4222 21.2949 13.0857 15.2725 10.7459C15.3575 10.6588 15.4426 10.5718 15.5277 10.4849C17.0903 11.0772 18.6572 11.6587 20.2152 12.264C26.0412 14.5275 31.8644 16.7988 37.6847 19.0777C38.1047 19.2426 38.6101 19.2653 38.9139 19.6865C38.8845 19.7404 38.8551 19.7943 38.8256 19.848Z" fill="#AEAEFE"/>
<path d="M15.0324 11.0161C19.3737 12.7018 23.7149 14.3877 28.0561 16.0737C31.4383 17.3892 34.8191 18.7082 38.1987 20.0308C38.333 20.0833 38.5292 20.0616 38.5621 20.277C38.504 20.364 38.4459 20.451 38.3878 20.5382C38.2846 20.4623 38.175 20.3958 38.0604 20.3394C35.8921 19.4917 33.728 18.6332 31.5502 17.8121C30.6021 17.4546 29.7024 16.9529 28.6899 16.7792C28.3756 16.4998 28.0055 16.2927 27.605 16.1719C27.2044 16.0511 26.7829 16.0195 26.3692 16.0793L26.7514 15.9308C25.3808 15.399 24.0621 14.8914 22.7467 14.3753C20.1147 13.3422 17.4836 12.3065 14.8535 11.2683L15.0324 11.0161Z" fill="#AAAFFE"/>
<path d="M18.1169 8.99243C19.5854 9.58529 21.0488 10.1919 22.5235 10.7685C28.0389 12.9251 33.5565 15.0761 39.0763 17.2213C39.3291 17.3196 39.5893 17.3983 39.846 17.4861C39.8428 17.517 39.8397 17.5479 39.8366 17.5788C39.8147 17.6119 39.7927 17.6451 39.7706 17.6782C39.7652 17.7297 39.7598 17.7812 39.7543 17.8327C32.5199 15.0121 25.2854 12.1917 18.0509 9.37156C17.9075 9.31571 17.7332 9.3074 17.6963 9.10617C17.8365 9.06833 17.9767 9.03042 18.1169 8.99243Z" fill="#B9ACFE"/>
<path d="M13.7407 17.0505C13.709 16.8481 13.6772 16.6457 13.6455 16.4433L13.6649 16.4341C14.4379 16.7275 15.2125 17.0166 15.9836 17.3151C19.1348 18.535 22.2855 19.7565 25.4356 20.9795L25.929 21.2278V23.607L25.8526 23.5192C25.8516 23.4315 25.8506 23.3437 25.8495 23.256C25.8495 23.1689 25.8495 23.0818 25.8493 22.9946L25.8497 22.8189V22.5577V22.2958L25.8503 22.1197L25.8103 21.7292L13.7407 17.0505Z" fill="#83B7FE"/>
<path d="M40.0199 14.9495L40.0276 15.0369C40.0272 15.0952 40.0268 15.1536 40.0263 15.2121L40.0253 15.388L40.0222 15.3873C38.367 14.7516 36.7082 14.1256 35.0575 13.4776C32.7567 12.5745 30.4621 11.6549 28.165 10.7424C28.2778 10.6569 28.3905 10.5715 28.5032 10.4861C29.2521 10.7649 30.0044 11.0339 30.7489 11.324C33.8405 12.5291 36.9308 13.7376 40.0199 14.9495Z" fill="#C4ADFD"/>
<path d="M39.8539 17.4044C39.8836 17.1831 39.789 17.0749 39.5792 16.9936C35.4953 15.4124 31.4139 13.8243 27.3352 12.2294C27.1458 12.1335 26.9662 12.0191 26.7988 11.8876L27.0546 11.7153C31.1205 13.2895 35.1853 14.8665 39.249 16.4465C39.511 16.5488 39.917 16.5193 39.9415 16.9718L39.8539 17.4044Z" fill="#BCADFE"/>
<path d="M40.0254 16.0004C40.0259 16.0885 40.0266 16.1766 40.0272 16.2647L40.0219 16.2615C39.9507 16.2604 39.8799 16.2508 39.811 16.2329C36.8264 15.0688 33.8498 13.8832 30.8557 12.745C29.6837 12.2994 28.5571 11.718 27.3203 11.455L27.7322 11.0989C28.5079 11.3915 29.2852 11.6794 30.0587 11.9776C33.3806 13.2584 36.702 14.5409 40.0227 15.8251L40.0254 16.0004Z" fill="#C0ADFE"/>
<path d="M27.3203 11.4551C28.5571 11.7181 29.6836 12.2994 30.8557 12.745C33.8496 13.8833 36.8264 15.0688 39.811 16.233C39.8799 16.2508 39.9507 16.2604 40.0218 16.2615C40.0247 16.3799 40.0277 16.4983 40.0307 16.6167C40.001 16.735 39.9713 16.8533 39.9416 16.9717C39.9171 16.5192 39.5108 16.5487 39.2491 16.4464C35.1878 14.86 31.123 13.2829 27.0547 11.7153L27.3203 11.4551Z" fill="#BEADFE"/>
<path d="M40.0229 15.8252C36.7017 14.5425 33.3804 13.2599 30.0589 11.9777C29.2854 11.6795 28.5081 11.3916 27.7324 11.099L28.165 10.7427C30.4622 11.6551 32.7568 12.5747 35.0575 13.4779C36.7081 14.1258 38.367 14.7518 40.0222 15.3876C40.0225 15.5335 40.0227 15.6794 40.0229 15.8252Z" fill="#C2ADFE"/>
<path d="M40.0197 14.9496C36.9295 13.7406 33.8392 12.5321 30.7486 11.3242C30.0041 11.034 29.2516 10.765 28.5029 10.4863C28.6522 10.3726 28.8014 10.2589 28.9507 10.1453C31.0662 10.9639 33.1852 11.7734 35.296 12.6043C36.8739 13.2254 38.4412 13.8741 40.0131 14.5105C40.0195 14.5397 40.026 14.5687 40.0325 14.5977C40.0316 14.6854 40.0308 14.7732 40.0299 14.861C40.0266 14.8905 40.0232 14.92 40.0197 14.9496Z" fill="#C6ADFC"/>
<path d="M39.7765 13.3734C39.828 13.578 39.8794 13.7825 39.9309 13.987L29.3633 9.87479C29.5055 9.78695 29.6477 9.69912 29.79 9.61133C30.6728 9.75898 31.4616 10.1864 32.288 10.4971C34.7906 11.4382 37.2813 12.4122 39.7765 13.3734Z" fill="#CAACFA"/>
<path d="M29.3635 9.87476L39.9311 13.987C39.9586 14.1615 39.9862 14.336 40.0137 14.5105C38.4417 13.874 36.8743 13.2253 35.2965 12.6042C33.1857 11.7733 31.0667 10.9639 28.9512 10.1452C29.0886 10.0551 29.226 9.96493 29.3635 9.87476Z" fill="#C8ADFB"/>
<path d="M39.7765 13.3733C37.2812 12.4121 34.7906 11.4381 32.2881 10.497C31.4617 10.1863 30.6729 9.75888 29.79 9.61123C29.9717 9.41612 30.2147 9.29133 30.4772 9.2583C32.0069 9.86205 33.5387 10.4601 35.0655 11.071C36.6034 11.6864 38.1364 12.3145 39.6715 12.937L39.7765 13.3733Z" fill="#CCACF8"/>
<path d="M13.7412 17.0505L25.8108 21.729C25.8252 21.8699 25.838 21.9947 25.8508 22.1196C21.9977 20.6114 18.1437 19.106 14.2886 17.6035C14.1917 17.5659 13.9978 17.3545 13.9218 17.6593L13.9011 17.6739L13.7412 17.0505Z" fill="#7FB9FE"/>
<path d="M14.8532 11.2681C17.4842 12.304 20.1153 13.3398 22.7464 14.3752C24.0618 14.8915 25.3805 15.3989 26.7511 15.931L26.369 16.0795L26.0254 16.1674C26.0338 15.8425 25.7342 15.9056 25.579 15.844C23.6044 15.0599 21.6246 14.2892 19.6397 13.532C17.9643 12.8896 16.2831 12.2623 14.6045 11.6284L14.7738 11.3657L14.8583 11.2717L14.8532 11.2681Z" fill="#A7AEFE"/>
<path d="M38.9263 11.4455L39.3388 12.1524C39.1354 12.0933 38.9264 12.049 38.7294 11.9727C36.1806 10.9854 33.6328 9.99541 31.0859 9.0028L31.3281 8.84404L31.3496 8.56812C32.344 8.95715 33.3352 9.35526 34.3338 9.73307C35.8618 10.3112 37.3951 10.8754 38.9263 11.4455Z" fill="#D0ADF6"/>
<path d="M32.4808 3.49136L32.8105 4.19682C32.502 4.05016 32.1854 3.92164 31.8623 3.8119C31.1678 3.61595 30.5552 3.16054 29.806 3.1436C29.0471 2.50633 28.1195 2.11102 27.1398 2.00739C26.0787 1.5244 24.9862 1.11559 23.8701 0.783815C24.103 0.670737 24.3358 0.557658 24.5686 0.44458C25.763 0.918897 26.9536 1.40396 28.1531 1.86491C29.5917 2.4178 31.038 2.95015 32.4808 3.49136Z" fill="#E3AEE7"/>
<path d="M38.9264 11.4454C37.3953 10.8753 35.8619 10.3112 34.3338 9.733C33.3352 9.35519 32.3441 8.95705 31.3496 8.56805V8.04346C32.124 8.3355 32.8984 8.6275 33.6728 8.91945C35.2207 9.50085 36.7689 10.0816 38.3172 10.6618C38.5854 10.8633 38.7957 11.1338 38.9264 11.4454Z" fill="#D2ADF4"/>
<path d="M32.5511 26.6638L32.3788 26.8342C32.3458 26.6188 32.1496 26.6405 32.0153 26.5879C26.9051 24.5897 21.7975 22.5847 16.6759 20.6171C16.1465 20.4136 15.6605 19.9711 15.0202 20.1299C14.9272 19.9804 14.8342 19.8308 14.7412 19.6812C15.0125 19.7665 15.289 19.8372 15.5538 19.9394C19.084 21.3013 22.6133 22.6659 26.1416 24.0329C26.3031 24.1289 26.4646 24.2248 26.6262 24.3207C27.7849 24.7459 28.958 25.1353 30.0975 25.6081C30.9192 25.9489 31.8149 26.1179 32.5511 26.6638Z" fill="#6EBDFA"/>
<path d="M32.4816 3.49115C31.0387 2.94994 29.5925 2.41759 28.1539 1.86473C26.9544 1.40379 25.7638 0.918723 24.5693 0.444333L25.2428 0.257812C25.9006 0.490599 26.5622 0.71304 27.2156 0.957995C28.8299 1.5636 30.4406 2.17952 32.0529 2.79125L32.4816 3.49115Z" fill="#E5AEE5"/>
<path d="M32.2061 27.0076L32.0343 27.1785C32.0007 26.9749 31.825 26.9685 31.6825 26.9129C27.0674 25.113 22.4515 23.3151 17.835 21.5192C17.0228 21.2054 16.2452 20.7797 15.3693 20.6495C15.3106 20.5636 15.252 20.4777 15.1934 20.3918C15.343 20.216 15.4911 20.3667 15.6173 20.4156C20.4611 22.2944 25.3071 24.1679 30.1384 26.0794C30.8364 26.3557 31.6189 26.466 32.2061 27.0076Z" fill="#6ABFFA"/>
<path d="M32.2059 27.0075C31.6187 26.4658 30.8362 26.3556 30.1381 26.0793C25.3067 24.1675 20.4607 22.2943 15.6167 20.4155C15.4905 20.3665 15.3425 20.2159 15.1928 20.3917C15.1354 20.3044 15.0779 20.2172 15.0205 20.1299C15.6607 19.9711 16.1467 20.4136 16.6762 20.6171C21.7977 22.5847 26.9053 24.5897 32.0155 26.5879C32.1499 26.6405 32.346 26.6188 32.379 26.8342L32.2059 27.0075Z" fill="#6CBFFA"/>
<path d="M14.604 11.6284C16.2826 12.2623 17.9637 12.8895 19.6392 13.5317C21.6229 14.292 23.6026 15.0627 25.5785 15.8437C25.7337 15.9053 26.0333 15.8422 26.0249 16.1672L25.5961 16.3509C25.6849 16.1153 25.4834 16.1303 25.3667 16.0847C23.6092 15.3986 21.853 14.709 20.0917 14.0333C18.2122 13.312 16.3277 12.6045 14.4453 11.8912L14.604 11.6284Z" fill="#A5AEFE"/>
<path d="M15.3691 20.6494C16.2451 20.7794 17.0229 21.2053 17.835 21.5191C22.4555 23.3046 27.0713 25.1025 31.6824 26.9128C31.825 26.9684 32.0007 26.9748 32.0342 27.1785L31.9451 27.2657C31.9121 27.2388 31.8765 27.2156 31.8387 27.1962C27.3665 25.4536 22.8983 23.7004 18.4178 21.9805C17.4983 21.6275 16.6236 21.1275 15.626 21.0005L15.3691 20.6494Z" fill="#68C0F9"/>
<path d="M14.4458 11.8911C16.3281 12.6046 18.2127 13.3122 20.0922 14.0332C21.8535 14.709 23.6096 15.3985 25.3671 16.0846C25.4839 16.1302 25.6853 16.1153 25.5965 16.3508L25.3374 16.518C24.9807 16.1446 24.4778 16.0863 24.0342 15.9126C20.8039 14.6479 17.5669 13.401 14.332 12.1485L14.4458 11.8911Z" fill="#A4AEFE"/>
<path d="M31.7714 27.4391L31.5996 27.6106C31.5028 27.5522 31.4028 27.4995 31.3 27.4529C26.6463 25.6396 21.9915 23.8291 17.3356 22.0215C16.954 21.8736 16.6048 21.5861 16.1537 21.6757L15.8877 21.3411C16.0821 21.189 16.2367 21.3579 16.3947 21.4191C19.6761 22.689 22.956 23.9631 26.2344 25.2412C28.0836 25.9642 29.9258 26.7058 31.7714 27.4391Z" fill="#64C0F8"/>
<path d="M31.7714 27.4391C29.9259 26.7058 28.0836 25.9642 26.2342 25.2412C22.957 23.96 19.6771 22.6859 16.3945 21.419C16.2366 21.3579 16.082 21.1889 15.8876 21.3411L15.626 21.0005C16.6235 21.1276 17.4982 21.6276 18.4177 21.9805C22.8982 23.7003 27.3664 25.4536 31.8386 27.1962C31.8763 27.2155 31.912 27.2388 31.945 27.2656L31.7714 27.4391Z" fill="#66C0F9"/>
<path d="M16.1533 21.6757C16.6044 21.586 16.9536 21.8736 17.3352 22.0214C21.9924 23.8256 26.6472 25.6361 31.2996 27.4528C31.4024 27.4995 31.5025 27.5521 31.5993 27.6105C31.5556 27.6496 31.512 27.6887 31.4683 27.7278C29.5609 26.992 27.6536 26.2559 25.7464 25.5197C22.6004 24.3018 19.4549 23.0827 16.3098 21.8622L16.1533 21.6757Z" fill="#62C0F8"/>
<path d="M32.0523 2.79134C30.4401 2.17961 28.8294 1.56369 27.215 0.958082C26.5617 0.713128 25.9001 0.490687 25.2422 0.257973C25.4454 0.199126 25.6487 0.140316 25.8521 0.081543L26.0232 0.0817251L26.1958 0.0844209L26.3681 0.085696L26.5407 0.0866796L26.5409 0.0881368C27.625 0.520159 28.7027 0.971488 29.7969 1.37524C30.2759 1.552 30.7174 1.87309 31.2625 1.83859C31.5892 2.09588 31.8584 2.42062 32.0523 2.79134Z" fill="#E5AFE4"/>
<path d="M31.2948 27.901L31.1206 28.0762C27.1308 26.5274 23.1402 24.9809 19.1488 23.4369C18.5331 23.2003 17.9598 22.8036 17.2597 22.8329C17.0797 22.6569 16.8997 22.4808 16.7197 22.3047C17.8142 22.7077 18.9141 23.096 20.002 23.5164C23.7686 24.9719 27.5328 26.4335 31.2948 27.901Z" fill="#5EC2F6"/>
<path d="M31.2941 27.9009C27.5302 26.4386 23.7659 24.9771 20.0013 23.5165C18.9134 23.0961 17.8135 22.7077 16.719 22.3048C16.5824 22.1572 16.446 22.0097 16.3096 21.8621C19.455 23.0814 22.6005 24.3006 25.7461 25.5196C27.6526 26.2577 29.5599 26.9937 31.468 27.7277C31.4101 27.7854 31.3521 27.8431 31.2941 27.9009Z" fill="#60C2F6"/>
<path d="M14.3323 12.1487C17.5672 13.4012 20.8042 14.648 24.0345 15.9128C24.4782 16.0865 24.981 16.1447 25.3376 16.5182C25.2874 16.5524 25.2372 16.5866 25.1872 16.6208C25.0513 16.5818 24.9116 16.5529 24.7801 16.5022C21.2501 15.1416 17.7205 13.7797 14.1914 12.4164L14.3323 12.1487Z" fill="#A2AFFE"/>
<path d="M14.1909 12.4165C17.7203 13.779 21.2498 15.1409 24.7796 16.5023C24.9111 16.553 25.0508 16.5819 25.1866 16.6209C25.0987 16.7069 25.0109 16.7928 24.9231 16.8788C24.5504 16.7335 24.1777 16.5883 23.8049 16.4431C20.5685 15.188 17.3321 13.933 14.0957 12.6782L14.1909 12.4165Z" fill="#A0AFFE"/>
<path d="M25.8495 23.2559L25.8526 23.5191C22.9049 22.3826 19.9624 21.2321 17.0062 20.1192C16.1826 19.8091 15.4091 19.3383 14.5108 19.2467L14.3438 18.8887C14.4843 18.7405 14.6198 18.8744 14.7348 18.9191C18.4415 20.3598 22.1464 21.8054 25.8495 23.2559Z" fill="#72BCFC"/>
<path d="M30.9441 28.2515L30.7687 28.4258C27.0288 26.9657 23.2932 25.4943 19.5439 24.0598C19.0606 23.875 18.6183 23.4849 18.0401 23.6055L17.6064 23.1757C17.7266 23.0273 17.8535 23.1482 17.9558 23.188C22.2868 24.8717 26.6162 26.5595 30.9441 28.2515Z" fill="#5AC3F5"/>
<path d="M30.944 28.2513C26.6152 26.5618 22.2858 24.874 17.9557 23.1878C17.8534 23.148 17.7264 23.0271 17.6063 23.1755L17.2598 22.8328C17.9598 22.8035 18.5331 23.2002 19.1488 23.4368C23.1437 24.9717 27.1343 26.5181 31.1206 28.0761C31.0618 28.1345 31.0029 28.1929 30.944 28.2513Z" fill="#5CC3F5"/>
<path d="M14.0959 12.6782C17.3324 13.9331 20.5688 15.1881 23.8052 16.4431C24.1781 16.5877 24.5508 16.7329 24.9233 16.8788C24.8704 16.9386 24.8176 16.9985 24.7648 17.0584C24.4147 16.9399 24.0597 16.8342 23.715 16.701C20.478 15.4501 17.2419 14.1965 14.0068 12.9403L14.0959 12.6782Z" fill="#9EB0FE"/>
<path d="M14.0073 12.9402C17.2431 14.1944 20.4792 15.448 23.7156 16.7009C24.0602 16.8341 24.4152 16.9398 24.7652 17.0583C24.7071 17.1452 24.6491 17.2323 24.5913 17.3194C24.51 17.2937 24.4271 17.2724 24.3477 17.2417C20.8728 15.8959 17.3982 14.5495 13.9238 13.2026L14.0073 12.9402Z" fill="#9CB0FE"/>
<path d="M13.9232 13.2026C17.3977 14.5492 20.8724 15.8956 24.3471 17.2417C24.4265 17.2725 24.5094 17.2937 24.5905 17.3194C24.5282 17.4403 24.4659 17.5613 24.4038 17.6822C24.342 17.613 24.293 17.5096 24.2163 17.4798C20.761 16.1376 17.3041 14.7994 13.8457 13.4652L13.9232 13.2026Z" fill="#9AB1FE"/>
<path d="M18.04 23.6055C18.6183 23.4849 19.0606 23.8751 19.5439 24.0598C23.2931 25.4943 27.0286 26.9657 30.7686 28.4257L30.5949 28.5996C27.4559 27.3728 24.3222 26.1321 21.175 24.928C20.2557 24.5763 19.381 24.0812 18.3862 23.9489L18.04 23.6055Z" fill="#58C3F4"/>
<path d="M13.8455 13.4651C17.303 14.8017 20.7599 16.1398 24.2161 17.4797C24.2928 17.5094 24.3418 17.613 24.4036 17.682C24.3737 17.7671 24.3439 17.8523 24.3142 17.9375C24.2962 17.7572 24.1557 17.7165 24.0203 17.6637C20.7606 16.3938 17.501 15.1236 14.2413 13.8532C14.0772 13.7894 13.897 13.6724 13.7539 13.8985L13.8455 13.4651Z" fill="#99B1FE"/>
<path d="M18.3857 23.949C19.3805 24.0812 20.2552 24.5763 21.1745 24.928C24.3217 26.1321 27.4554 27.3729 30.5943 28.5996L30.3242 28.8668C30.2631 28.5929 30.0003 28.5985 29.8206 28.528C27.255 27.5196 24.688 26.5148 22.112 25.5344C20.9903 25.1075 19.9081 24.5658 18.7312 24.2943L18.3857 23.949Z" fill="#56C5F4"/>
<path d="M18.7314 24.2939C19.9084 24.5655 20.9905 25.1071 22.1122 25.5341C24.6882 26.5145 27.2553 27.5193 29.8208 28.5277C30.0005 28.5983 30.2633 28.5927 30.3244 28.8665L30.1518 29.0388C30.1399 28.8388 29.9657 28.84 29.8422 28.7915C27.3864 27.8294 24.9355 26.8535 22.4694 25.9191C21.3741 25.5041 20.3221 24.9594 19.1639 24.7235L18.7314 24.2939Z" fill="#54C5F3"/>
<path d="M39.6709 12.937C38.1358 12.3145 36.6028 11.6864 35.0649 11.071C33.5381 10.4601 32.0064 9.86206 30.4766 9.25831C30.5954 9.20284 30.7143 9.14741 30.8332 9.09204L39.5037 12.5013L39.6709 12.937Z" fill="#CEACF7"/>
<path d="M13.668 14.4262L13.746 13.989C15.4394 14.6324 17.1328 15.276 18.8261 15.9196C20.6524 16.6153 22.4783 17.3124 24.3037 18.0109C24.2781 18.1299 24.2525 18.2489 24.2269 18.3679C24.1399 18.2952 24.0454 18.2323 23.9452 18.1801C20.6401 16.8872 17.3343 15.5965 14.0276 14.3078C13.8876 14.2532 13.7763 14.2303 13.745 14.4262L13.668 14.4262Z" fill="#95B1FE"/>
<path d="M24.3038 18.011C22.478 17.3137 20.6522 16.6166 18.8263 15.9197C17.1334 15.2747 15.44 14.6312 13.7461 13.9891L13.7539 13.8986C13.8971 13.6725 14.0773 13.7895 14.2413 13.8533C17.5015 15.1221 20.7611 16.3923 24.0202 17.6639C24.1556 17.7167 24.296 17.7574 24.314 17.9376C24.317 17.9625 24.3134 17.9878 24.3038 18.011Z" fill="#97B1FE"/>
<path d="M25.8494 22.2956C25.8494 22.3829 25.8494 22.4702 25.8494 22.5575C23.8104 21.7669 21.7733 20.9711 19.7318 20.1873C17.8252 19.4552 15.914 18.7359 14.0047 18.0109C13.9699 17.8985 13.9352 17.7861 13.9004 17.6738L13.921 17.6592C16.0066 18.4791 18.09 19.3051 20.1786 20.1173C22.0659 20.8513 23.9588 21.5701 25.8494 22.2956Z" fill="#7BB9FE"/>
<path d="M14.0049 18.011C15.9142 18.7359 17.8254 19.4553 19.732 20.1873C21.7735 20.9712 23.8106 21.7669 25.8496 22.5574C25.8496 22.6445 25.8496 22.7316 25.8496 22.8187C22.0508 21.3311 18.2518 19.8437 14.4527 18.3567C14.3359 18.311 14.1978 18.2361 14.1696 18.4592L14.0049 18.011Z" fill="#79BAFD"/>
<path d="M13.6684 14.4263H13.7453L24.2185 18.5356L24.2163 18.7981L13.6553 14.6873L13.6684 14.4263Z" fill="#92B3FE"/>
<path d="M14.1699 18.459C14.198 18.2359 14.3362 18.3108 14.453 18.3564C18.2524 19.8428 22.0514 21.3301 25.85 22.8185C25.8498 22.8771 25.8497 22.9356 25.8496 22.9942C22.6663 21.7669 19.488 20.5257 16.2957 19.3233C15.6244 19.0704 15.0028 18.6338 14.2443 18.647L14.1699 18.459Z" fill="#77BAFD"/>
<path d="M26.8013 11.8891C25.2788 11.3183 23.7536 10.7549 22.2347 10.1746C21.0872 9.73616 19.9479 9.27623 18.8047 8.82585C18.977 8.79751 19.1493 8.76921 19.3214 8.74097C20.1242 9.03281 20.9289 9.319 21.7291 9.61765C23.1966 10.1653 24.6615 10.7203 26.1274 11.2722L26.8013 11.8891Z" fill="#BCADFE"/>
<path d="M13.6551 14.6873L24.2161 18.7978C24.2199 18.8856 24.2236 18.9734 24.2273 19.0612C20.8744 17.7528 17.5228 16.441 14.1637 15.1496C14.0381 15.1013 13.7658 14.7511 13.6604 15.2134L13.6592 15.5627H13.5889L13.6551 14.6873Z" fill="#90B3FE"/>
<path d="M19.1641 24.7236C20.3223 24.9596 21.3743 25.5043 22.4696 25.9193C24.9358 26.8537 27.3865 27.8295 29.8424 28.7917C29.9659 28.8401 30.1401 28.8391 30.1519 29.039L29.979 29.2106C29.966 29.0099 29.79 29.0137 29.6669 28.9654C27.593 28.1526 25.5247 27.3242 23.4398 26.5416C22.147 26.0563 20.9033 25.4315 19.5543 25.1036L19.1641 24.7236Z" fill="#51C6F3"/>
<path d="M38.3172 10.6619C36.7691 10.0812 35.2209 9.5004 33.6728 8.91956C32.898 8.62858 32.1236 8.3366 31.3496 8.0436L31.3498 7.60645L33.2417 8.3059L33.3114 8.60182L34.3546 8.74025L37.5411 9.9639L38.3172 10.6619Z" fill="#D4ADF3"/>
<path d="M26.1273 11.2722C24.6613 10.7203 23.1965 10.1653 21.729 9.61765C20.9288 9.31892 20.124 9.0328 19.3213 8.74096L20.443 8.6543L25.1753 10.4886L26.1273 11.2722Z" fill="#BEADFE"/>
<path d="M14.2441 18.6473C15.0026 18.6341 15.624 19.0707 16.2955 19.3236C19.4878 20.526 22.6661 21.7672 25.8494 22.9945L25.8496 23.2559C22.1454 21.8085 18.4405 20.3628 14.7349 18.9191C14.62 18.8744 14.4844 18.7406 14.3438 18.8887L14.2441 18.6473Z" fill="#75BCFC"/>
<path d="M19.5537 25.1035C20.9027 25.4314 22.1464 26.0563 23.4392 26.5415C25.5241 27.3242 27.5924 28.1525 29.6663 28.9653C29.7893 29.0135 29.9653 29.0097 29.9784 29.2105L29.8054 29.3802C29.689 29.2801 29.562 29.1933 29.4268 29.1215C28.5234 28.7615 27.6156 28.4127 26.708 28.0637C24.4404 27.1918 22.1725 26.3208 19.9041 25.4508L19.5537 25.1035Z" fill="#4FC6F2"/>
<path d="M26.1421 24.0329C22.6131 22.6678 19.0838 21.3033 15.5542 19.9396C15.2895 19.8376 15.0129 19.7667 14.7417 19.6813C14.6938 19.5939 14.6461 19.5065 14.5986 19.419C14.676 19.4147 14.7536 19.4212 14.8292 19.4385C16.9503 20.254 19.0744 21.0615 21.1882 21.896C22.8079 22.5356 24.4142 23.21 26.0265 23.869L26.1421 24.0329Z" fill="#70BDFB"/>
<path d="M19.9043 25.4512C22.1723 26.322 24.4403 27.193 26.7082 28.0641C27.6158 28.4131 28.5236 28.7619 29.427 29.122C29.5622 29.1937 29.6892 29.2805 29.8056 29.3806L29.6319 29.551C29.5144 29.452 29.3867 29.3663 29.2509 29.2954C27.1208 28.4604 24.9956 27.6114 22.8515 26.8153C22.0543 26.5193 21.3086 26.0542 20.4358 25.9831L19.9043 25.4512Z" fill="#4DC6F2"/>
<path d="M20.4355 25.9829C21.3084 26.0541 22.0541 26.5191 22.8512 26.8151C24.9953 27.6112 27.1206 28.4602 29.2506 29.2953C29.3864 29.3662 29.5141 29.4518 29.6316 29.5508L29.4589 29.7233C29.3754 29.6517 29.2842 29.5898 29.1871 29.5388C27.0222 28.6922 24.8592 27.8403 22.6866 27.0149C22.0909 26.7886 21.5378 26.4152 20.8698 26.4104L20.4355 25.9829Z" fill="#4BC7F1"/>
<path d="M20.8701 26.4104C21.5382 26.4152 22.0913 26.7886 22.6869 27.0149C24.8596 27.8403 27.0226 28.6923 29.1875 29.5388C29.2846 29.5898 29.3757 29.6517 29.4592 29.7233L29.2861 29.8955C29.2333 29.8481 29.1751 29.8072 29.1127 29.7737C27.1855 29.0201 25.2621 28.256 23.3263 27.5257C22.661 27.2746 22.0391 26.8781 21.3031 26.8399L20.8701 26.4104Z" fill="#48C8F1"/>
<path d="M21.3027 26.8398C22.0386 26.878 22.6606 27.2746 23.326 27.5256C25.2617 28.2559 27.1851 29.02 29.1123 29.7737C29.1747 29.8071 29.2329 29.848 29.2857 29.8954L29.1128 30.0675C27.5673 29.4542 26.0289 28.8214 24.4736 28.2351C23.5684 27.8938 22.7168 27.3873 21.7348 27.2709L21.3027 26.8398Z" fill="#46C9F0"/>
<path d="M21.7354 27.2708C22.7174 27.3873 23.5689 27.8937 24.4742 28.235C26.0294 28.8213 27.5678 29.4541 29.1133 30.0674L28.8561 30.3235C28.7657 30.2434 28.6882 30.1294 28.583 30.0879C27.2286 29.5526 25.8795 29.0009 24.5094 28.5102C23.7325 28.232 23.0166 27.7631 22.1677 27.7011L21.7354 27.2708Z" fill="#44C9F0"/>
<path d="M26.0264 23.8688C24.4142 23.2098 22.8078 22.5355 21.1884 21.8958C19.0746 21.0612 16.9504 20.2538 14.8294 19.4382C14.7538 19.421 14.6762 19.4145 14.5988 19.4188L14.5117 19.2466C15.41 19.3382 16.1834 19.809 17.0071 20.1191C19.9631 21.232 22.9056 22.3825 25.8533 23.5191L25.9295 23.6072C25.9618 23.6943 25.9941 23.7816 26.0264 23.8688Z" fill="#72BDFB"/>
<path d="M29.8066 3.14355C30.5558 3.16049 31.1684 3.6159 31.8629 3.81186C32.186 3.9216 32.5026 4.05012 32.8111 4.19678L33.0647 4.98272L30.5737 4.02315L29.8066 3.14355Z" fill="#E1AFE8"/>
<path d="M23.8704 0.783691C24.9865 1.11545 26.079 1.52425 27.1402 2.00722C26.6253 2.06427 26.1104 2.12135 25.5956 2.17845C25.5712 1.99812 25.4228 1.97243 25.2914 1.92147C24.6186 1.66049 23.9463 1.39835 23.2744 1.13506L23.8704 0.783691Z" fill="#E1AEE8"/>
<path d="M22.168 27.7012C23.0169 27.7631 23.7328 28.2321 24.5097 28.5103C25.8798 29.001 27.2289 29.5526 28.5833 30.0879C28.6884 30.1295 28.766 30.2434 28.8564 30.3236L28.6816 30.4965C26.6825 29.5814 24.6373 28.7737 22.5546 28.0768L22.168 27.7012Z" fill="#42C9EF"/>
<path d="M25.1756 10.4886L20.4434 8.65426C22.2868 8.55412 23.7859 9.37525 25.1756 10.4886Z" fill="#C1AEFE"/>
<path d="M39.5044 12.5014L30.834 9.09215L31.0867 9.00293C33.6342 9.9936 36.182 10.9836 38.7301 11.9728C38.9271 12.0491 39.1361 12.0934 39.3395 12.1525L39.5044 12.5014Z" fill="#CEADF6"/>
<path d="M22.5537 28.0769C24.6365 28.7738 26.6816 29.5815 28.6807 30.4966L28.5089 30.6676L22.9905 28.5128L22.5537 28.0769Z" fill="#3FC9EF"/>
<path d="M22.9912 28.5127L28.5096 30.6675C28.4674 30.7076 28.4251 30.7477 28.3828 30.7877C28.2466 30.7505 28.1066 30.7242 27.9751 30.6744C26.4585 30.1009 24.9426 29.5253 23.4276 28.9477L22.9912 28.5127Z" fill="#3CCBED"/>
<path d="M23.4277 28.9478C24.9434 29.5239 26.4592 30.0995 27.9753 30.6745C28.1068 30.7243 28.2468 30.7506 28.383 30.7878C28.2941 30.8761 28.2051 30.9643 28.1161 31.0526C27.4304 30.7771 26.7555 30.4675 26.0558 30.236C25.3852 30.014 24.7805 29.5857 24.0472 29.5602L23.4277 28.9478Z" fill="#39CBED"/>
<path d="M24.7372 2.52983L24.3028 2.79595C23.5763 2.65724 22.8795 2.38997 22.2441 2.00637L22.5936 1.66211C23.3608 1.79338 24.0916 2.08921 24.7372 2.52983Z" fill="#DDAFEB"/>
<path d="M33.2334 5.94289C33.2359 6.08968 33.2384 6.23647 33.2409 6.38326L31.2519 5.59834L31.0918 5.07134C31.345 4.87295 33.0195 5.55444 33.2334 5.94289Z" fill="#DDAFEB"/>
<path d="M24.0469 29.5603C24.7802 29.5858 25.3849 30.0141 26.0556 30.2361C26.7553 30.4677 27.4301 30.7772 28.1158 31.0527C28.0582 31.1096 28.0006 31.1664 27.943 31.2232C27.5821 31.0996 27.2239 30.9669 26.8598 30.8541C26.0884 30.6152 25.4014 30.1194 24.5665 30.0752L24.0469 29.5603Z" fill="#37CBEC"/>
<path d="M21.4014 3.06045L21.7253 2.62012L23.6376 3.3281L23.2808 3.76504C22.6543 3.53014 22.0279 3.29527 21.4014 3.06045Z" fill="#D8AFEF"/>
<path d="M22.7614 4.63374C22.6781 4.84261 22.5947 5.05131 22.5114 5.25986C22.0195 4.79604 21.3458 4.73891 20.7744 4.45312C20.8092 4.33793 20.844 4.22274 20.8787 4.10755C21.5911 3.96813 22.1037 4.57024 22.7614 4.63374Z" fill="#D2AEF4"/>
<path d="M24.5664 30.0752C25.4012 30.1194 26.0885 30.6152 26.8597 30.8541C27.2237 30.9671 27.5819 31.0996 27.9428 31.2232C27.8551 31.3111 27.7672 31.3989 27.6794 31.4868C27.4042 31.3753 27.1352 31.2435 26.8528 31.1565C26.2616 30.9744 25.7338 30.5854 25.085 30.5921L24.5664 30.0752Z" fill="#34CCEC"/>
<path d="M33.2338 5.94283C33.0199 5.55438 31.3455 4.87288 31.0922 5.07128C30.9821 4.83813 30.872 4.60498 30.7617 4.37183C31.3397 4.59405 31.9111 4.83656 32.4992 5.02498C32.6662 5.07849 32.8647 5.36203 33.07 5.06472L33.2338 5.94283Z" fill="#DFB0EA"/>
<path d="M33.2415 7.08268C33.2415 7.25754 33.2415 7.4324 33.2415 7.60727L31.3498 6.90716C31.3491 6.7323 31.3484 6.55743 31.3477 6.38257L33.2415 7.08268Z" fill="#D8AEEF"/>
<path d="M24.7374 2.52992C24.0918 2.08928 23.361 1.79346 22.5938 1.6622C22.765 1.51973 22.9361 1.37721 23.1071 1.23462C23.8341 1.721 24.6544 2.0456 25.514 2.18704L24.7374 2.52992Z" fill="#DFB0EA"/>
<path d="M20.774 4.45312C21.3454 4.73881 22.0192 4.79604 22.5109 5.25986C22.4838 5.37338 22.4566 5.48681 22.4293 5.60016L20.6211 4.89808L20.774 4.45312Z" fill="#D0ADF5"/>
<path d="M20.4482 5.8595C20.4735 5.71257 20.4988 5.56563 20.5241 5.4187C21.1232 5.72358 21.8705 5.7132 22.3358 6.3022C22.3357 6.3872 22.3355 6.47228 22.3354 6.55743L20.4482 5.8595Z" fill="#CCADF8"/>
<path d="M20.4483 5.85938L22.3354 6.55733C22.3501 6.65397 22.343 6.75275 22.3145 6.84616C22.286 6.93958 22.2369 7.02519 22.171 7.0965C21.6527 6.68043 20.875 6.78407 20.4404 6.20032L20.4483 5.85938Z" fill="#CAACFA"/>
<path d="M23.6378 3.32823L21.7256 2.62025L21.9924 2.27417C22.6131 2.57832 23.3441 2.63348 23.8757 3.13872L23.6378 3.32823Z" fill="#DAAFEE"/>
<path d="M20.4404 6.20068C20.8748 6.78433 21.6527 6.68068 22.171 7.09686C22.1326 7.29573 21.9729 7.36119 21.8169 7.4307C21.4014 7.24127 21.0293 6.91678 20.526 6.99974C20.439 6.88829 20.3847 6.75414 20.3696 6.61275C20.3544 6.47136 20.379 6.32851 20.4404 6.20068Z" fill="#C9AEFB"/>
<path d="M25.085 30.5921C25.7338 30.5854 26.2616 30.9744 26.8528 31.1565C27.1352 31.2435 27.4042 31.3751 27.6794 31.4868L27.4065 31.7507C26.83 31.467 26.2752 31.1203 25.6048 31.1103L25.085 30.5921Z" fill="#32CDEB"/>
<path d="M33.2414 7.08252L31.3476 6.38241C31.3473 6.32703 31.347 6.27162 31.3467 6.21618L31.4084 5.94019L33.2414 6.64543L33.2414 7.08252Z" fill="#DAAFEE"/>
<path d="M22.7616 4.63364C22.1038 4.57014 21.5913 3.96803 20.8789 4.10745C20.9385 3.96241 20.998 3.81738 21.0575 3.67236L22.9377 4.285L22.7616 4.63364Z" fill="#D4AEF3"/>
<path d="M33.0707 5.06469C32.8653 5.36199 32.6668 5.07846 32.4999 5.02494C31.9116 4.83653 31.3401 4.59387 30.7624 4.37179C30.6998 4.25558 30.637 4.13938 30.5742 4.02319L33.0652 4.98276C33.0706 5.0097 33.0724 5.03725 33.0707 5.06469Z" fill="#DFAEE9"/>
<path d="M25.5141 2.18692C24.6546 2.04545 23.8344 1.72086 23.1074 1.2345C23.1633 1.2014 23.2192 1.16823 23.275 1.13501C23.9473 1.3973 24.6196 1.65947 25.292 1.92149C25.4234 1.9725 25.5718 1.998 25.5962 2.17847C25.5694 2.18561 25.5418 2.18846 25.5141 2.18692Z" fill="#DFAEE9"/>
<path d="M22.3361 6.30207C21.8708 5.71307 21.1234 5.72345 20.5244 5.41857C20.5288 5.36028 20.5331 5.30191 20.5375 5.24345C20.6045 5.20403 20.6807 5.1837 20.7582 5.1846C20.8356 5.1855 20.9114 5.20761 20.9775 5.24859C21.452 5.43471 21.935 5.59832 22.4146 5.77045L22.3361 6.30207Z" fill="#CEADF7"/>
<path d="M31.3498 6.90698L33.2413 7.60709V7.86877L31.3496 7.16931L31.3498 6.90698Z" fill="#D6AEF0"/>
<path d="M21.4018 3.06055C22.0282 3.29542 22.6547 3.53029 23.2812 3.76514C23.2226 3.85031 23.164 3.93546 23.1053 4.02058L21.2852 3.31639L21.4018 3.06055Z" fill="#D6AEF0"/>
<path d="M23.8755 3.13898C23.3439 2.63373 22.613 2.57858 21.9922 2.27442C22.0761 2.18517 22.16 2.09589 22.2439 2.00659C22.8792 2.39017 23.5761 2.65742 24.3026 2.79614L23.8755 3.13898Z" fill="#DBB0ED"/>
<path d="M33.2419 6.64539L31.4089 5.94015L31.3472 6.21614C31.3158 6.01019 31.2844 5.80419 31.2529 5.59814C31.9159 5.85981 32.5788 6.12146 33.2417 6.3831C33.2418 6.47053 33.2419 6.55796 33.2419 6.64539Z" fill="#DBAFED"/>
<path d="M31.3496 7.16943L33.2413 7.86889C33.2413 7.95632 33.2413 8.04375 33.2413 8.13118L31.3498 7.43173L31.3496 7.16943Z" fill="#D6ADF1"/>
<path d="M21.2845 3.31641L23.1048 4.0206C23.0731 4.07905 23.0414 4.13755 23.0098 4.19608C22.417 3.92151 21.7489 3.82489 21.2158 3.40919L21.2845 3.31641Z" fill="#D6ADF1"/>
<path d="M20.5264 6.99963C21.0297 6.91668 21.4017 7.2412 21.8173 7.4306C21.2817 7.61391 20.804 7.61719 20.5264 6.99963Z" fill="#C8AFFC"/>
<path d="M22.4143 5.77052C21.9346 5.59824 21.4516 5.43478 20.9771 5.24866C20.911 5.20768 20.8353 5.18557 20.7578 5.18467C20.6804 5.18377 20.6041 5.2041 20.5371 5.24352C20.5652 5.12833 20.5933 5.01314 20.6213 4.89795L22.4296 5.60006C22.4245 5.65692 22.4194 5.71374 22.4143 5.77052Z" fill="#CFAEF6"/>
<path d="M21.2163 3.40918C21.7494 3.82488 22.4175 3.92149 23.0103 4.19607C22.9861 4.22572 22.9619 4.25537 22.9378 4.28503L21.0576 3.67239C21.1106 3.58464 21.1635 3.4969 21.2163 3.40918Z" fill="#D5AFF1"/>
<path d="M31.3497 7.43164L33.2412 8.13109V8.30596L31.3496 7.6065L31.3497 7.43164Z" fill="#D4AEF1"/>
<path d="M13.5889 15.5627H13.6592V15.6502L13.6594 15.9125L13.6609 16.1756L13.6651 16.4338L13.6456 16.443C13.6267 16.1497 13.6077 15.8562 13.5889 15.5627Z" fill="#8EB4FE"/>
<path d="M14.8579 11.2717L14.7734 11.3657L14.8579 11.2717Z" fill="#AAAFFE"/>
<path d="M34.6075 24.6386L34.2066 25.0177L27.8311 22.5573L27.8313 21.9453C28.829 22.3272 29.8308 22.698 30.8232 23.0937C32.0887 23.5982 33.3464 24.1227 34.6075 24.6386Z" fill="#83B7FE"/>
<path d="M35.1248 24.1202L34.7778 24.4657C34.5872 24.3719 34.402 24.2639 34.2052 24.1863C32.0815 23.3491 29.9568 22.5147 27.8311 21.683L27.8373 21.2458C27.9505 21.2498 28.0629 21.2666 28.1725 21.2959C29.7035 21.8934 31.2374 22.4842 32.7594 23.1047C33.5534 23.4284 34.4127 23.5982 35.1248 24.1202Z" fill="#88B6FE"/>
<path d="M36.1618 23.0889L35.8155 23.4319C35.6981 23.3329 35.5705 23.247 35.435 23.1755C34.4788 22.7924 33.5261 22.3972 32.5563 22.0526C31.2661 21.594 30.0392 20.9566 28.7002 20.6367C28.8175 20.4903 28.9348 20.3439 29.0522 20.1975C30.8252 20.8855 32.6048 21.5563 34.3675 22.2707C34.9745 22.5167 35.6508 22.6204 36.1618 23.0889Z" fill="#93B3FE"/>
<path d="M28.6895 16.7791C29.7018 16.9528 30.6016 17.4545 31.5497 17.812C33.7276 18.6331 35.8918 19.4916 38.0599 20.3393C38.1746 20.3957 38.2841 20.4622 38.3873 20.5381C38.3381 20.6017 38.2889 20.6655 38.2396 20.7292C36.0305 19.8821 33.8249 19.0256 31.6106 18.1929C30.7857 17.8827 30.0076 17.4302 29.1171 17.3113L28.6895 16.7791Z" fill="#A7AEFE"/>
<path d="M35.1245 24.1201C34.4124 23.5983 33.5531 23.4285 32.7591 23.1048C31.237 22.4843 29.7032 21.8936 28.1721 21.2961C28.0626 21.2667 27.9501 21.2499 27.8369 21.246C28.0333 21.1251 28.2298 21.0042 28.4263 20.8833C29.5432 21.339 30.6653 21.7822 31.7756 22.2539C33.0017 22.7749 34.301 23.1114 35.4693 23.7767L35.1245 24.1201Z" fill="#8CB4FE"/>
<path d="M29.1172 17.3113C30.0077 17.4303 30.7857 17.8828 31.6106 18.1929C33.8249 19.0256 36.0305 19.8821 38.2397 20.7292C38.1508 20.8485 38.0619 20.9677 37.9728 21.0869C37.9129 21.0267 37.8451 20.975 37.7714 20.9333C35.04 19.8603 32.3078 18.7892 29.5749 17.7199C29.4424 17.668 29.3888 17.7134 29.3725 17.8421C29.2874 17.6651 29.2023 17.4882 29.1172 17.3113Z" fill="#A5AEFE"/>
<path d="M29.373 17.842C29.3893 17.7133 29.443 17.6678 29.5755 17.7198C32.3074 18.7917 35.0396 19.8629 37.7719 20.9333C37.8457 20.975 37.9134 21.0267 37.9734 21.087C37.9123 21.1683 37.8512 21.2496 37.7901 21.331C37.6622 21.2414 37.5275 21.1624 37.3871 21.0949C35.5528 20.381 33.7203 19.6622 31.8783 18.97C31.0765 18.6687 30.3187 18.2333 29.4549 18.1123C29.4276 18.0222 29.4003 17.932 29.373 17.842Z" fill="#A4AEFE"/>
<path d="M29.4541 18.1123C30.3179 18.2333 31.0757 18.6686 31.8776 18.9699C33.7196 19.6621 35.552 20.3809 37.3862 21.0947C37.5266 21.1622 37.6613 21.2412 37.7892 21.3308C37.7366 21.3924 37.6841 21.4541 37.6316 21.5157L29.5825 18.3797L29.5488 18.7107L29.5468 18.973L29.4742 19.0604C29.4675 18.7444 29.4608 18.4284 29.4541 18.1123Z" fill="#A2AFFE"/>
<path d="M29.5488 18.7108L29.5826 18.3799L37.6316 21.5158C37.5405 21.6264 37.4494 21.7369 37.3583 21.8473C37.296 21.7761 37.247 21.6688 37.1693 21.6388C34.6308 20.6583 32.0907 19.6823 29.5488 18.7108Z" fill="#A0AFFE"/>
<path d="M29.5488 18.7107C32.0897 19.685 34.6298 20.661 37.1693 21.6387C37.247 21.6688 37.296 21.7761 37.3583 21.8473C37.3021 21.9092 37.2458 21.9712 37.1896 22.0331C37.0932 21.9556 36.9893 21.8883 36.8795 21.8322C34.4364 20.8761 31.9922 19.923 29.5469 18.9729L29.5488 18.7107Z" fill="#9EB0FE"/>
<path d="M27.8311 22.5574L34.2066 25.0177C34.1197 25.1047 34.0327 25.1916 33.9457 25.2785L27.8313 22.9071L27.8311 22.5574Z" fill="#7FB9FE"/>
<path d="M29.5478 18.9731C31.9924 19.9252 34.4366 20.8783 36.8804 21.8325C36.9902 21.8886 37.0941 21.9559 37.1905 22.0334L37.0227 22.2152L29.4619 19.235L29.4752 19.0606L29.5478 18.9731Z" fill="#9CB0FE"/>
<path d="M29.4618 19.2349L37.0226 22.2151C36.938 22.3049 36.8533 22.3948 36.7686 22.4847C36.6706 22.3851 36.5596 22.2999 36.4385 22.2313C34.0898 21.315 31.7392 20.4037 29.3867 19.4973C29.4118 19.4098 29.4368 19.3223 29.4618 19.2349Z" fill="#9AB1FE"/>
<path d="M36.1625 23.0888C35.6515 22.6203 34.9752 22.5166 34.3682 22.2706C32.6055 21.5563 30.8258 20.8853 29.0527 20.1974C29.1062 20.1099 29.1596 20.0224 29.2132 19.9348C30.1397 20.3045 31.0661 20.6744 31.9925 21.0444C33.4702 21.6382 34.9473 22.2333 36.4239 22.8299L36.1625 23.0888Z" fill="#95B1FE"/>
<path d="M29.3868 19.4976C31.738 20.4073 34.0886 21.3186 36.4386 22.2316C36.5596 22.3001 36.6707 22.3854 36.7686 22.4849C36.7427 22.5112 36.7167 22.5373 36.6907 22.5634C36.555 22.5247 36.4155 22.4961 36.2842 22.4457C33.9545 21.5519 31.6254 20.6567 29.2969 19.7599L29.3868 19.4976Z" fill="#99B1FE"/>
<path d="M29.2967 19.76C31.6257 20.6558 33.9547 21.5511 36.284 22.4458C36.4154 22.4963 36.5548 22.5248 36.6905 22.5636L36.4237 22.83C34.9466 22.2347 33.4695 21.6396 31.9923 21.0445C31.0667 20.6726 30.1402 20.3027 29.2129 19.9349C29.2408 19.8766 29.2688 19.8183 29.2967 19.76Z" fill="#97B1FE"/>
<path d="M28.7003 20.6367C30.0393 20.9566 31.2661 21.594 32.5564 22.0526C33.5262 22.3972 34.4788 22.7924 35.4351 23.1756C35.5706 23.247 35.6981 23.3329 35.8156 23.4319L35.6424 23.6035C35.5736 23.536 35.4964 23.4779 35.4126 23.4307C34.1556 22.9309 32.9001 22.4265 31.6362 21.9452C30.6019 21.5513 29.5569 21.1866 28.5166 20.809L28.7003 20.6367Z" fill="#91B3FE"/>
<path d="M28.5169 20.8088C29.5571 21.1865 30.6021 21.5511 31.6365 21.945C32.9004 22.4263 34.1559 22.9307 35.413 23.4306C35.4967 23.4777 35.5739 23.5358 35.6427 23.6034L35.4697 23.7767C34.3014 23.1112 33.0021 22.7748 31.7761 22.2539C30.6657 21.7822 29.5436 21.339 28.4268 20.8833C28.4568 20.8586 28.4869 20.8338 28.5169 20.8088Z" fill="#8EB4FE"/>
<path d="M33.0708 26.1479L32.8102 26.4059C32.775 26.3462 32.753 26.2512 32.7029 26.2321C30.9292 25.5531 29.1539 24.8785 27.377 24.2084L27.6431 23.9519C28.0948 24.1292 28.5483 24.3018 28.9979 24.4846C30.3564 25.0369 31.714 25.5913 33.0708 26.1479Z" fill="#72BCFC"/>
<path d="M27.8311 21.6831C29.956 22.5167 32.0807 23.3511 34.2052 24.1862C34.402 24.2638 34.5872 24.3718 34.7778 24.4656C34.7211 24.5233 34.6643 24.581 34.6076 24.6387C33.3464 24.1227 32.0887 23.5982 30.8232 23.0937C29.8309 22.6981 28.829 22.3273 27.8313 21.9454L27.8311 21.6831Z" fill="#86B6FE"/>
<path d="M33.7648 25.4593C33.7069 25.517 33.6491 25.5748 33.5911 25.6326L27.8315 23.3443L27.8311 23.082C27.9607 23.1408 28.0883 23.2051 28.2203 23.2576C30.0681 23.9924 31.9163 24.7263 33.7648 25.4593Z" fill="#7BB9FE"/>
<path d="M33.7649 25.4591C31.9166 24.7255 30.0684 23.9916 28.2203 23.2574C28.0883 23.2049 27.9607 23.1408 27.8311 23.0818V22.907L33.9455 25.2784C33.8853 25.3386 33.8251 25.3989 33.7649 25.4591Z" fill="#7DB9FE"/>
<path d="M27.8319 23.3442L33.5916 25.6325C33.5339 25.6902 33.4762 25.7479 33.4185 25.8056L27.8066 23.6C27.8151 23.5148 27.8236 23.4295 27.8319 23.3442Z" fill="#79BAFD"/>
<path d="M27.8066 23.6001L33.4188 25.8057C33.3609 25.8628 33.303 25.9199 33.245 25.9769L27.7422 23.7812L27.8066 23.6001Z" fill="#77BAFD"/>
<path d="M32.5505 26.664C31.8143 26.118 30.9186 25.9489 30.0973 25.6082C28.9577 25.1353 27.7847 24.7459 26.626 24.3208C26.8204 24.313 27.0148 24.3053 27.2093 24.2976C28.0261 24.5987 28.8557 24.8687 29.6566 25.2089C30.6769 25.6424 31.7683 25.9006 32.7241 26.4925L32.5505 26.664Z" fill="#70BDFB"/>
<path d="M27.742 23.781L33.2446 25.9769L33.0713 26.1477C31.7137 25.593 30.3561 25.0386 28.9984 24.4844C28.5488 24.3017 28.0952 24.129 27.6436 23.9518L27.742 23.781Z" fill="#75BCFC"/>
<path d="M32.7248 26.4923C31.7689 25.9005 30.6776 25.6421 29.6572 25.2087C28.8564 24.8686 28.0267 24.5986 27.21 24.2975C27.2658 24.2678 27.3217 24.238 27.3775 24.2083C29.1534 24.881 30.9288 25.5556 32.7035 26.232C32.7535 26.2511 32.7756 26.3461 32.8107 26.4057L32.7248 26.4923Z" fill="#72BDFB"/>
<path d="M39.7705 17.6783C39.7925 17.6451 39.8145 17.612 39.8365 17.5789C39.8145 17.6119 39.7925 17.6451 39.7705 17.6783Z" fill="#BBACFE"/>
<path d="M31.2626 1.83856C30.7175 1.87305 30.276 1.55196 29.797 1.3752C28.7026 0.971452 27.6251 0.520122 26.541 0.0881003L27.1422 0.0866067L27.3146 0.0855503L27.4869 0.0839838L27.6592 0.081543H27.83C29.1291 0.282287 30.3314 0.897702 31.2626 1.83856Z" fill="#E6B0E1"/>
<path d="M37.5409 9.96412L34.3545 8.74048C35.5131 8.81661 36.6229 9.24276 37.5409 9.96412Z" fill="#D5B0F1"/>
<path d="M24.9223 20.5416L25.436 20.9795C22.2855 19.7579 19.1348 18.5364 15.984 17.3151C15.2129 17.0166 14.4383 16.7275 13.6653 16.434C13.6639 16.348 13.6625 16.2619 13.6611 16.1758C14.4057 16.4672 15.1495 16.7614 15.8951 17.0501C18.9039 18.2148 21.913 19.3787 24.9223 20.5416Z" fill="#86B6FE"/>
<path d="M25.8503 22.2955C23.9596 21.5701 22.0667 20.8513 20.1795 20.1174C18.0909 19.3052 16.0075 18.4792 13.9219 17.6592C13.9978 17.3544 14.1918 17.5658 14.2887 17.6034C18.1455 19.1017 21.9996 20.6071 25.8509 22.1195C25.8506 22.1783 25.8504 22.2369 25.8503 22.2955Z" fill="#7DB9FE"/>
<path d="M24.227 18.368L24.2183 18.5355L13.7451 14.4262C13.7763 14.2303 13.8878 14.2533 14.0277 14.3079C17.3334 15.599 20.6393 16.8898 23.9453 18.1802C24.0456 18.2323 24.14 18.2953 24.227 18.368Z" fill="#93B3FE"/>
<path d="M24.2922 19.3221C24.3505 19.4969 24.4088 19.6719 24.4671 19.847C20.8645 18.448 17.2619 17.0491 13.6592 15.6502V15.5627C13.6596 15.4462 13.66 15.3297 13.6604 15.2134C13.7283 15.2339 13.7979 15.2498 13.8639 15.2755C17.3402 16.6239 20.8163 17.9727 24.2922 19.3221Z" fill="#8CB4FE"/>
<path d="M24.2921 19.3222C20.8161 17.9732 17.34 16.6243 13.8637 15.2757C13.7977 15.2502 13.7281 15.234 13.6602 15.2135C13.7655 14.7513 14.0379 15.1014 14.1634 15.1497C17.5226 16.4412 20.8742 17.753 24.2271 19.0614C24.2488 19.1483 24.2705 19.2353 24.2921 19.3222Z" fill="#8EB4FE"/>
<path d="M13.6592 15.6504C17.2619 17.0493 20.8645 18.4482 24.4671 19.8471L24.6546 20.196L13.6594 15.9127L13.6592 15.6504Z" fill="#88B6FE"/>
<path d="M13.6592 15.9126L24.6543 20.1961C24.7434 20.3113 24.8325 20.4264 24.9216 20.5416C21.9126 19.3779 18.9036 18.2141 15.8946 17.05C15.149 16.7614 14.4052 16.4674 13.6606 16.1757C13.6602 16.0881 13.6597 16.0004 13.6592 15.9126Z" fill="#88B6FE"/>
</g>
<defs>
<clipPath id="clip0">
<rect width="57.6" height="32" fill="white"/>
</clipPath>
</defs>
</svg>
