<svg width="6" height="18" viewBox="0 0 6 18" fill="none" xmlns="http://www.w3.org/2000/svg">
<path d="M3.0001 0.199951C2.36358 0.199951 1.75313 0.452808 1.30304 0.902895C0.852954 1.35298 0.600098 1.96343 0.600098 2.59995C0.600098 3.23647 0.852954 3.84692 1.30304 4.29701C1.75313 4.74709 2.36358 4.99995 3.0001 4.99995C3.63662 4.99995 4.24707 4.74709 4.69715 4.29701C5.14724 3.84692 5.4001 3.23647 5.4001 2.59995C5.4001 1.96343 5.14724 1.35298 4.69715 0.902895C4.24707 0.452808 3.63662 0.199951 3.0001 0.199951ZM3.0001 6.59995C2.36358 6.59995 1.75313 6.85281 1.30304 7.30289C0.852954 7.75298 0.600098 8.36343 0.600098 8.99995C0.600098 9.63647 0.852954 10.2469 1.30304 10.697C1.75313 11.1471 2.36358 11.4 3.0001 11.4C3.63662 11.4 4.24707 11.1471 4.69715 10.697C5.14724 10.2469 5.4001 9.63647 5.4001 8.99995C5.4001 8.36343 5.14724 7.75298 4.69715 7.30289C4.24707 6.85281 3.63662 6.59995 3.0001 6.59995ZM3.0001 13C2.36358 13 1.75313 13.2528 1.30304 13.7029C0.852954 14.153 0.600098 14.7634 0.600098 15.4C0.600098 16.0365 0.852954 16.6469 1.30304 17.097C1.75313 17.5471 2.36358 17.7999 3.0001 17.7999C3.63662 17.7999 4.24707 17.5471 4.69715 17.097C5.14724 16.6469 5.4001 16.0365 5.4001 15.4C5.4001 14.7634 5.14724 14.153 4.69715 13.7029C4.24707 13.2528 3.63662 13 3.0001 13Z" fill="#1F2B38"/>
</svg>
