<svg width="17" height="16" viewBox="0 0 17 16" fill="none" xmlns="http://www.w3.org/2000/svg">
<path fill-rule="evenodd" clip-rule="evenodd" d="M16.6339 0.445446C17.1083 0.987579 17.0534 1.81162 16.5112 2.28598L9.98091 8L16.5112 13.714C17.0534 14.1884 17.1083 15.0124 16.6339 15.5546C16.1596 16.0967 15.3355 16.1516 14.7934 15.6773L7.14123 8.98162C6.85817 8.73394 6.6958 8.37612 6.6958 8C6.6958 7.62388 6.85817 7.26606 7.14123 7.01838L14.7934 0.322743C15.3355 -0.151624 16.1596 -0.0966879 16.6339 0.445446Z" fill="#8F959C"/>
<path fill-rule="evenodd" clip-rule="evenodd" d="M0.322619 0.445446C-0.151748 0.987579 -0.0968113 1.81162 0.445322 2.28598L6.97563 8L0.445322 13.714C-0.0968113 14.1884 -0.151748 15.0124 0.322619 15.5546C0.796987 16.0967 1.62102 16.1516 2.16316 15.6773L9.81531 8.98162C10.0984 8.73394 10.2607 8.37612 10.2607 8C10.2607 7.62388 10.0984 7.26606 9.81531 7.01838L2.16316 0.322743C1.62102 -0.151624 0.796987 -0.0966879 0.322619 0.445446Z" fill="#8F959C"/>
</svg>
