<svg width="24" height="24" viewBox="0 0 24 24" fill="none" xmlns="http://www.w3.org/2000/svg">
<path fill-rule="evenodd" clip-rule="evenodd" d="M11.9688 1.01507e-05C9.59646 0.00617267 7.27915 0.715391 5.3097 2.03805C3.34024 3.36071 1.80703 5.23746 0.903787 7.43117C0.000543408 9.62487 -0.232198 12.0371 0.23497 14.363C0.702139 16.6889 1.84825 18.8242 3.5285 20.499C5.20874 22.1738 7.34771 23.313 9.67514 23.7726C12.0026 24.2322 14.414 23.9917 16.6048 23.0813C18.7955 22.171 20.6673 20.6317 21.9836 18.6579C23.2998 16.6842 24.0015 14.3646 24 11.9922C23.9938 8.80684 22.723 5.75427 20.4669 3.50551C18.2109 1.25676 15.1542 -0.00412737 11.9688 1.01507e-05ZM11.9688 22.7455C9.8444 22.7403 7.76914 22.1057 6.00517 20.9218C4.24119 19.7379 2.86763 18.0578 2.05796 16.0937C1.2483 14.1297 1.03885 11.9697 1.45607 9.8866C1.8733 7.80354 2.89848 5.89084 4.40213 4.39009C5.90578 2.88934 7.82045 1.86785 9.90432 1.45465C11.9882 1.04145 14.1478 1.25507 16.1103 2.06852C18.0728 2.88198 19.7503 4.25879 20.9307 6.02504C22.1112 7.7913 22.7418 9.86778 22.7429 11.9922C22.7387 14.846 21.6015 17.5814 19.5811 19.5969C17.5607 21.6124 14.8226 22.743 11.9688 22.7403V22.7455Z" fill="#1F2B38"/>
<path d="M16.9586 11.2183V10.2391C16.9581 9.65774 16.841 9.0824 16.6144 8.54706C16.3878 8.01171 16.0562 7.52722 15.6391 7.12219C14.7962 6.28885 13.6582 5.8221 12.4729 5.82349H11.6677C10.4833 5.82278 9.34639 6.28948 8.50407 7.12219C8.08693 7.52699 7.7554 8.01149 7.52918 8.54693C7.30296 9.08237 7.18666 9.65781 7.18719 10.2391V11.2183L6.63135 12.2209V13.665C6.63234 14.3107 6.76245 14.9496 7.01403 15.5442C7.26561 16.1388 7.63358 16.6771 8.09628 17.1274C9.03862 18.0515 10.3063 18.5683 11.6262 18.5663H12.5223C13.8387 18.5666 15.1026 18.0499 16.0417 17.1274C16.5053 16.6776 16.8739 16.1395 17.126 15.5448C17.3781 14.9501 17.5084 14.3109 17.5093 13.665V12.2209L16.9586 11.2183ZM12.595 15.6495V16.8053C12.5956 16.8901 12.5747 16.9736 12.5343 17.0481C12.4939 17.1226 12.4352 17.1856 12.3638 17.2313H12.1456C12.1198 17.2352 12.0935 17.2352 12.0677 17.2313H12.0158C11.9942 17.2336 11.9724 17.2336 11.9508 17.2313H11.8521C11.7793 17.1846 11.7194 17.1205 11.6776 17.0447C11.6359 16.969 11.6137 16.884 11.6132 16.7975V15.6495C11.3121 15.5326 11.0617 15.3136 10.9058 15.0307C10.7499 14.7479 10.6984 14.4193 10.7604 14.1023C10.8223 13.7853 10.9936 13.5002 11.2445 13.2968C11.4954 13.0935 11.8097 12.9847 12.1326 12.9897H12.1612C12.4841 12.9847 12.7985 13.0935 13.0494 13.2968C13.3002 13.5002 13.4716 13.7853 13.5335 14.1023C13.5954 14.4193 13.5439 14.7479 13.388 15.0307C13.2321 15.3136 12.9817 15.5326 12.6807 15.6495H12.595ZM14.956 11.2495H9.18719V10.2391C9.18783 9.91786 9.25273 9.60002 9.37808 9.30427C9.50343 9.00852 9.68669 8.74084 9.91706 8.517C10.3828 8.05498 11.0117 7.79469 11.6677 7.79232H12.4729C13.129 7.79441 13.7579 8.05474 14.2236 8.517C14.4535 8.7412 14.6364 9.00894 14.7617 9.30461C14.887 9.60028 14.9522 9.91795 14.9534 10.2391L14.956 11.2495Z" fill="#1F2B38"/>
</svg>
