<svg width="16" height="16" viewBox="0 0 16 16" fill="none" xmlns="http://www.w3.org/2000/svg">
<path d="M12.1746 1.6001C11.9017 1.6001 11.6287 1.70433 11.4204 1.9126L10.1329 3.2001L12.7996 5.86676L14.0871 4.57926C14.5036 4.16273 14.5036 3.48746 14.0871 3.07093L12.9288 1.9126C12.7205 1.70433 12.4475 1.6001 12.1746 1.6001ZM9.06628 4.26676L2.80482 10.5282C2.80482 10.5282 3.29429 10.4844 3.47669 10.6668C3.65909 10.8492 3.50894 12.0428 3.73294 12.2668C3.95694 12.4908 5.14302 12.3331 5.31315 12.5032C5.48328 12.6734 5.47148 13.1949 5.47148 13.1949L11.7329 6.93343L9.06628 4.26676ZM2.13294 12.2668L1.62982 13.6918C1.61004 13.748 1.59983 13.8072 1.59961 13.8668C1.59961 14.0082 1.6558 14.1439 1.75582 14.2439C1.85584 14.3439 1.99149 14.4001 2.13294 14.4001C2.19255 14.3999 2.25171 14.3897 2.30794 14.3699C2.30968 14.3692 2.31142 14.3685 2.31315 14.3678L2.32669 14.3636C2.32774 14.3629 2.32878 14.3623 2.32982 14.3616L3.73294 13.8668L2.93294 13.0668L2.13294 12.2668Z" fill="#86D084"/>
</svg>
