<svg width="21" height="21" viewBox="0 0 21 21" fill="none" xmlns="http://www.w3.org/2000/svg">
<path d="M8.33333 0C3.74083 0 0 3.74083 0 8.33333C0 12.9258 3.74083 16.6667 8.33333 16.6667C10.3304 16.6667 12.1645 15.9575 13.6019 14.7803L18.5775 19.7559C18.6543 19.8358 18.7462 19.8997 18.848 19.9437C18.9498 19.9877 19.0593 20.0109 19.1702 20.012C19.281 20.0132 19.391 19.9922 19.4937 19.9502C19.5963 19.9083 19.6896 19.8464 19.768 19.768C19.8464 19.6896 19.9083 19.5963 19.9502 19.4937C19.9922 19.391 20.0132 19.281 20.012 19.1702C20.0109 19.0593 19.9877 18.9498 19.9437 18.848C19.8997 18.7462 19.8358 18.6543 19.7559 18.5775L14.7803 13.6019C15.9575 12.1645 16.6667 10.3304 16.6667 8.33333C16.6667 3.74083 12.9258 0 8.33333 0ZM8.33333 1.66667C12.0251 1.66667 15 4.64156 15 8.33333C15 12.0251 12.0251 15 8.33333 15C4.64156 15 1.66667 12.0251 1.66667 8.33333C1.66667 4.64156 4.64156 1.66667 8.33333 1.66667Z" fill="#8F959C"/>
</svg>
