<svg width="20" height="20" viewBox="0 0 20 20" fill="none" xmlns="http://www.w3.org/2000/svg">
<path d="M16.3999 0.399902C15.5512 0.399902 14.7373 0.737044 14.1372 1.33716C13.537 1.93728 13.1999 2.75121 13.1999 3.5999C13.2013 3.82484 13.2265 4.04899 13.2749 4.26865L6.00928 7.90146C5.70961 7.55646 5.33953 7.27965 4.92394 7.08964C4.50834 6.89963 4.05687 6.80083 3.5999 6.7999C2.75121 6.7999 1.93728 7.13704 1.33716 7.73716C0.737044 8.33728 0.399902 9.15121 0.399902 9.9999C0.399902 10.8486 0.737044 11.6625 1.33716 12.2626C1.93728 12.8628 2.75121 13.1999 3.5999 13.1999C4.05702 13.1994 4.50872 13.1009 4.92459 12.9112C5.34046 12.7215 5.71086 12.4448 6.01084 12.0999L13.2718 15.7312C13.2244 15.9509 13.2003 16.1751 13.1999 16.3999C13.1999 17.2486 13.537 18.0625 14.1372 18.6626C14.7373 19.2628 15.5512 19.5999 16.3999 19.5999C17.2486 19.5999 18.0625 19.2628 18.6626 18.6626C19.2628 18.0625 19.5999 17.2486 19.5999 16.3999C19.5999 15.5512 19.2628 14.7373 18.6626 14.1372C18.0625 13.537 17.2486 13.1999 16.3999 13.1999C15.9428 13.2004 15.4911 13.2989 15.0752 13.4886C14.6593 13.6783 14.2889 13.955 13.989 14.2999L6.72803 10.6687C6.77541 10.4489 6.7995 10.2247 6.7999 9.9999C6.79837 9.77549 6.77323 9.55186 6.7249 9.33271L13.9905 5.6999C14.2903 6.04462 14.6605 6.32114 15.0761 6.51088C15.4917 6.70061 15.9431 6.79916 16.3999 6.7999C17.2486 6.7999 18.0625 6.46276 18.6626 5.86264C19.2628 5.26253 19.5999 4.4486 19.5999 3.5999C19.5999 2.75121 19.2628 1.93728 18.6626 1.33716C18.0625 0.737044 17.2486 0.399902 16.3999 0.399902Z" fill="#1F2B38"/>
</svg>
