<svg width="39" height="39" viewBox="0 0 39 39" fill="none" aria-hidden="true" xmlns="http://www.w3.org/2000/svg"><path fill-rule="evenodd" clip-rule="evenodd" d="M39 19.5C39 30.2696 30.2696 39 19.5 39C13.64 39 8.38371 36.4152 4.80917 32.3235L4.58825 32.3725V32.0661C1.72537 28.6723 0 24.2876 0 19.5C0 8.73045 8.73036 0 19.5 0C30.2696 0 39 8.73045 39 19.5ZM33.592 29.3745C35.5542 26.5795 36.7059 23.1743 36.7059 19.5C36.7059 9.99745 29.0024 2.29412 19.5 2.29412C9.99756 2.29412 2.29412 9.99745 2.29412 19.5C2.29412 23.1743 3.44584 26.5796 5.40796 29.3745C8.56937 26.8664 13.7036 25.2353 19.5 25.2353C25.2964 25.2353 30.4306 26.8664 33.592 29.3745Z" fill="#1f2b38"></path><path d="M27.5294 14.9118C27.5294 19.3463 23.9345 22.9412 19.5 22.9412C15.0655 22.9412 11.4706 19.3463 11.4706 14.9118C11.4706 10.4772 15.0655 6.88235 19.5 6.88235C23.9345 6.88235 27.5294 10.4772 27.5294 14.9118Z" fill="#1f2b38"></path></svg>
