<svg width="99" height="44" viewBox="0 0 99 44" fill="none" xmlns="http://www.w3.org/2000/svg">
<g filter="url(#filter0_d)">
<rect x="10" y="9" width="79" height="24" rx="4" fill="#436CFF" fill-opacity="0.36"/>
</g>
<path d="M25.923 14.3423C25.4488 14.3423 24.9745 14.5558 24.6762 14.9823L24.268 15.5656C24.1413 15.7467 23.919 15.8273 23.7055 15.77L23.018 15.5858C22.0129 15.3158 21.0169 16.1512 21.1079 17.188L21.1704 17.8976C21.1898 18.1177 21.0713 18.3226 20.8709 18.4159L20.2251 18.7166C19.2818 19.1562 19.0563 20.4366 19.7921 21.1724L20.296 21.6756C20.4523 21.8317 20.4936 22.0645 20.4002 22.2648L20.0988 22.91C20.0988 22.9102 20.0988 22.9104 20.0988 22.9106C19.6586 23.8536 20.3088 24.979 21.3455 25.0695L22.0545 25.1313C22.2746 25.1505 22.4558 25.3027 22.5128 25.5161L22.6971 26.2043C22.966 27.2097 24.1878 27.6542 25.0402 27.0571L25.6229 26.6483C25.805 26.5209 26.0413 26.5213 26.2225 26.6483L26.8058 27.0571C27.6581 27.6542 28.8793 27.2097 29.1483 26.2043L29.3325 25.5161C29.3896 25.3027 29.5707 25.1505 29.7908 25.1313L30.4998 25.0695C30.5 25.0695 30.5002 25.0695 30.5005 25.0695C31.5372 24.979 32.1868 23.8536 31.7466 22.9106C31.7466 22.9104 31.7466 22.9102 31.7466 22.91L31.4458 22.2648C31.3523 22.0645 31.393 21.8317 31.5493 21.6756L32.0532 21.1724C32.7893 20.4368 32.5636 19.1563 31.6203 18.7166L30.9751 18.4159C30.7747 18.3226 30.6562 18.1177 30.6756 17.8976L30.7381 17.188C30.829 16.1513 29.8331 15.3158 28.8279 15.5858L28.1404 15.77C27.927 15.8273 27.7047 15.7467 27.5779 15.5656L27.1697 14.9823C26.8714 14.5558 26.3972 14.3423 25.923 14.3423ZM25.923 15.3228C26.0825 15.3228 26.2417 15.4003 26.3501 15.5552C26.3501 15.5554 26.3501 15.5556 26.3501 15.5558L26.7583 16.1392C27.1242 16.6621 27.783 16.9016 28.3996 16.7362L29.0871 16.5513C29.4519 16.4533 29.775 16.7242 29.742 17.1007L29.6795 17.8097V17.8104C29.6238 18.4461 29.9738 19.0534 30.5525 19.3228V19.3221L31.1977 19.6229C31.5404 19.7826 31.6134 20.1976 31.3462 20.4647L30.8429 20.9679C30.3912 21.4192 30.2696 22.1096 30.5395 22.688L30.841 23.3332C31.0008 23.6755 30.7898 24.0405 30.4132 24.0734L29.7042 24.1353C29.0683 24.1907 28.5313 24.641 28.3664 25.2577L28.1828 25.9458C28.085 26.3111 27.689 26.455 27.3794 26.2381L26.7967 25.8293C26.2739 25.4629 25.5724 25.4634 25.0493 25.8293L24.466 26.2381C24.1563 26.455 23.7609 26.3111 23.6632 25.9458L23.479 25.2577C23.3141 24.641 22.7777 24.1907 22.1417 24.1353L21.4321 24.0734C21.0555 24.0405 20.8452 23.6755 21.005 23.3332L21.3065 22.688C21.5763 22.1096 21.4548 21.4192 21.0031 20.9679L20.4992 20.4647C20.2316 20.1972 20.3048 19.7826 20.6476 19.6229L21.2928 19.3221V19.3228C21.8716 19.0534 22.2221 18.4461 22.1665 17.8104V17.8097L22.104 17.1007C22.0709 16.7242 22.3935 16.4533 22.7583 16.5513L23.4464 16.7362C24.063 16.9016 24.7211 16.6621 25.0871 16.1392L25.4953 15.5558C25.4953 15.5556 25.4953 15.5554 25.4953 15.5552C25.6036 15.4003 25.7635 15.3228 25.923 15.3228ZM28.3234 18.9953C28.1935 18.9991 28.0702 19.0532 27.9796 19.1463L24.9998 22.1261L23.6867 20.813C23.6406 20.765 23.5854 20.7267 23.5243 20.7003C23.4633 20.6739 23.3976 20.66 23.331 20.6593C23.2645 20.6586 23.1985 20.6712 23.1369 20.6964C23.0754 20.7215 23.0194 20.7587 22.9724 20.8057C22.9253 20.8528 22.8882 20.9087 22.863 20.9703C22.8379 21.0319 22.8253 21.0979 22.8259 21.1644C22.8266 21.2309 22.8406 21.2966 22.8669 21.3577C22.8933 21.4188 22.9316 21.4739 22.9796 21.52L24.6463 23.1867C24.7401 23.2804 24.8672 23.3331 24.9998 23.3331C25.1324 23.3331 25.2596 23.2804 25.3533 23.1867L28.6867 19.8534C28.7588 19.7831 28.808 19.6927 28.828 19.594C28.8479 19.4953 28.8375 19.3929 28.7983 19.3002C28.759 19.2074 28.6927 19.1287 28.6079 19.0743C28.5232 19.0199 28.424 18.9924 28.3234 18.9953V18.9953Z" fill="white"/>
<path d="M40.424 25L38.108 18.712H39.776L41.36 23.536L42.956 18.712H44.48L42.176 25H40.424ZM48.0347 25.12C47.3547 25.12 46.7667 24.972 46.2707 24.676C45.7827 24.38 45.4027 23.988 45.1307 23.5C44.8587 23.004 44.7227 22.468 44.7227 21.892C44.7227 21.3 44.8547 20.756 45.1187 20.26C45.3907 19.756 45.7747 19.356 46.2707 19.06C46.7667 18.756 47.3587 18.604 48.0467 18.604C48.7347 18.604 49.3227 18.756 49.8107 19.06C50.2987 19.356 50.6707 19.752 50.9267 20.248C51.1907 20.736 51.3227 21.264 51.3227 21.832C51.3227 22.04 51.3107 22.22 51.2867 22.372H46.4267C46.4667 22.86 46.6467 23.244 46.9667 23.524C47.2947 23.804 47.6707 23.944 48.0947 23.944C48.4147 23.944 48.7147 23.868 48.9947 23.716C49.2827 23.556 49.4787 23.348 49.5827 23.092L50.9627 23.476C50.7307 23.956 50.3587 24.352 49.8467 24.664C49.3347 24.968 48.7307 25.12 48.0347 25.12ZM46.3907 21.352H49.6787C49.6307 20.88 49.4507 20.5 49.1387 20.212C48.8347 19.916 48.4627 19.768 48.0227 19.768C47.5907 19.768 47.2187 19.916 46.9067 20.212C46.6027 20.5 46.4307 20.88 46.3907 21.352ZM56.0463 20.104C55.5583 20.104 55.1223 20.2 54.7383 20.392C54.3543 20.576 54.0783 20.844 53.9103 21.196V25H52.3023V18.712H53.7783V20.056C53.9943 19.624 54.2743 19.284 54.6183 19.036C54.9703 18.788 55.3383 18.652 55.7223 18.628C55.8903 18.628 55.9983 18.632 56.0463 18.64V20.104ZM56.9429 17.836V16.24H58.5509V17.836H56.9429ZM56.9429 25V18.712H58.5509V25H56.9429ZM60.3855 20.272H59.5575V19.048H60.3855V18.664C60.3855 18.2 60.4855 17.776 60.6855 17.392C60.8935 17.008 61.1855 16.7 61.5615 16.468C61.9455 16.236 62.4055 16.12 62.9415 16.12C63.3975 16.12 63.8135 16.196 64.1895 16.348C64.5735 16.492 64.9335 16.676 65.2695 16.9L64.6335 18.1C64.4255 17.916 64.1815 17.768 63.9015 17.656C63.6215 17.544 63.3375 17.488 63.0495 17.488C62.6895 17.488 62.4215 17.6 62.2455 17.824C62.0775 18.048 61.9935 18.308 61.9935 18.604V19.048H65.3655V25H63.7575V20.272H61.9935V25H60.3855V20.272ZM69.7378 25.12C69.0578 25.12 68.4698 24.972 67.9738 24.676C67.4858 24.38 67.1058 23.988 66.8338 23.5C66.5618 23.004 66.4258 22.468 66.4258 21.892C66.4258 21.3 66.5578 20.756 66.8218 20.26C67.0938 19.756 67.4778 19.356 67.9738 19.06C68.4698 18.756 69.0618 18.604 69.7498 18.604C70.4378 18.604 71.0258 18.756 71.5138 19.06C72.0018 19.356 72.3738 19.752 72.6298 20.248C72.8938 20.736 73.0258 21.264 73.0258 21.832C73.0258 22.04 73.0138 22.22 72.9898 22.372H68.1298C68.1698 22.86 68.3498 23.244 68.6698 23.524C68.9978 23.804 69.3738 23.944 69.7978 23.944C70.1178 23.944 70.4178 23.868 70.6978 23.716C70.9858 23.556 71.1818 23.348 71.2858 23.092L72.6658 23.476C72.4338 23.956 72.0618 24.352 71.5498 24.664C71.0378 24.968 70.4338 25.12 69.7378 25.12ZM68.0938 21.352H71.3818C71.3338 20.88 71.1538 20.5 70.8418 20.212C70.5378 19.916 70.1658 19.768 69.7258 19.768C69.2938 19.768 68.9218 19.916 68.6098 20.212C68.3058 20.5 68.1338 20.88 68.0938 21.352ZM73.6214 21.856C73.6214 21.256 73.7414 20.708 73.9814 20.212C74.2214 19.716 74.5534 19.324 74.9774 19.036C75.4014 18.748 75.8854 18.604 76.4294 18.604C76.8934 18.604 77.3094 18.72 77.6774 18.952C78.0534 19.176 78.3454 19.464 78.5534 19.816V16.24H80.1614V23.2C80.1614 23.376 80.1894 23.5 80.2454 23.572C80.3014 23.636 80.3974 23.676 80.5334 23.692V25C80.2454 25.056 80.0174 25.084 79.8494 25.084C79.5614 25.084 79.3214 25.012 79.1294 24.868C78.9454 24.724 78.8414 24.536 78.8174 24.304L78.7934 23.908C78.5614 24.3 78.2454 24.6 77.8454 24.808C77.4534 25.016 77.0414 25.12 76.6094 25.12C76.0254 25.12 75.5094 24.976 75.0614 24.688C74.6134 24.392 74.2614 24 74.0054 23.512C73.7494 23.016 73.6214 22.464 73.6214 21.856ZM78.5534 22.696V21.196C78.4254 20.844 78.2054 20.552 77.8934 20.32C77.5814 20.088 77.2614 19.972 76.9334 19.972C76.6054 19.972 76.3174 20.064 76.0694 20.248C75.8214 20.424 75.6294 20.66 75.4934 20.956C75.3574 21.244 75.2894 21.556 75.2894 21.892C75.2894 22.236 75.3654 22.552 75.5174 22.84C75.6694 23.12 75.8734 23.344 76.1294 23.512C76.3934 23.672 76.6934 23.752 77.0294 23.752C77.3334 23.752 77.6334 23.652 77.9294 23.452C78.2334 23.252 78.4414 23 78.5534 22.696Z" fill="white"/>
<defs>
<filter id="filter0_d" x="0" y="0" width="99" height="44" filterUnits="userSpaceOnUse" color-interpolation-filters="sRGB">
<feFlood flood-opacity="0" result="BackgroundImageFix"/>
<feColorMatrix in="SourceAlpha" type="matrix" values="0 0 0 0 0 0 0 0 0 0 0 0 0 0 0 0 0 0 127 0"/>
<feOffset dy="1"/>
<feGaussianBlur stdDeviation="5"/>
<feColorMatrix type="matrix" values="0 0 0 0 0 0 0 0 0 0 0 0 0 0 0 0 0 0 0.15 0"/>
<feBlend mode="normal" in2="BackgroundImageFix" result="effect1_dropShadow"/>
<feBlend mode="normal" in="SourceGraphic" in2="effect1_dropShadow" result="shape"/>
</filter>
</defs>
</svg>
